<?xml version="1.0" encoding="utf-8" standalone="no"?>
<!DOCTYPE svg PUBLIC "-//W3C//DTD SVG 1.1//EN"
  "http://www.w3.org/Graphics/SVG/1.1/DTD/svg11.dtd">
<svg xmlns:xlink="http://www.w3.org/1999/xlink" width="460.8pt" height="345.6pt" viewBox="0 0 460.8 345.6" xmlns="http://www.w3.org/2000/svg" version="1.1">
 <metadata>
  <rdf:RDF xmlns:dc="http://purl.org/dc/elements/1.1/" xmlns:cc="http://creativecommons.org/ns#" xmlns:rdf="http://www.w3.org/1999/02/22-rdf-syntax-ns#">
   <cc:Work>
    <dc:type rdf:resource="http://purl.org/dc/dcmitype/StillImage"/>
    <dc:date>2024-01-15T12:42:57.526806</dc:date>
    <dc:format>image/svg+xml</dc:format>
    <dc:creator>
     <cc:Agent>
      <dc:title>Matplotlib v3.6.2, https://matplotlib.org/</dc:title>
     </cc:Agent>
    </dc:creator>
   </cc:Work>
  </rdf:RDF>
 </metadata>
 <defs>
  <style type="text/css">*{stroke-linejoin: round; stroke-linecap: butt}</style>
 </defs>
 <g id="figure_1">
  <g id="patch_1">
   <path d="M 0 345.6 
L 460.8 345.6 
L 460.8 0 
L 0 0 
z
" style="fill: #ffffff"/>
  </g>
  <g id="axes_1">
   <g id="patch_2">
    <path d="M 57.6 307.584 
L 414.72 307.584 
L 414.72 41.472 
L 57.6 41.472 
z
" style="fill: #ffffff"/>
   </g>
   <g id="matplotlib.axis_1">
    <g id="xtick_1">
     <g id="line2d_1">
      <defs>
       <path id="m2e59e30b8f" d="M 0 0 
L 0 3.5 
" style="stroke: #262626; stroke-width: 0.8"/>
      </defs>
      <g>
       <use xlink:href="#m2e59e30b8f" x="105.014761" y="307.584" style="fill: #262626; stroke: #262626; stroke-width: 0.8"/>
      </g>
     </g>
     <g id="text_1">
      <text style="fill: #262626; font: 10px 'Arial', 'DejaVu Sans', 'Liberation Sans', 'Bitstream Vera Sans', sans-serif; text-anchor: middle" x="105.014761" y="321.741812" transform="rotate(-0 105.014761 321.741812)">−0.6</text>
     </g>
    </g>
    <g id="xtick_2">
     <g id="line2d_2">
      <g>
       <use xlink:href="#m2e59e30b8f" x="155.328142" y="307.584" style="fill: #262626; stroke: #262626; stroke-width: 0.8"/>
      </g>
     </g>
     <g id="text_2">
      <text style="fill: #262626; font: 10px 'Arial', 'DejaVu Sans', 'Liberation Sans', 'Bitstream Vera Sans', sans-serif; text-anchor: middle" x="155.328142" y="321.741812" transform="rotate(-0 155.328142 321.741812)">−0.5</text>
     </g>
    </g>
    <g id="xtick_3">
     <g id="line2d_3">
      <g>
       <use xlink:href="#m2e59e30b8f" x="205.641523" y="307.584" style="fill: #262626; stroke: #262626; stroke-width: 0.8"/>
      </g>
     </g>
     <g id="text_3">
      <text style="fill: #262626; font: 10px 'Arial', 'DejaVu Sans', 'Liberation Sans', 'Bitstream Vera Sans', sans-serif; text-anchor: middle" x="205.641523" y="321.741812" transform="rotate(-0 205.641523 321.741812)">−0.4</text>
     </g>
    </g>
    <g id="xtick_4">
     <g id="line2d_4">
      <g>
       <use xlink:href="#m2e59e30b8f" x="255.954905" y="307.584" style="fill: #262626; stroke: #262626; stroke-width: 0.8"/>
      </g>
     </g>
     <g id="text_4">
      <text style="fill: #262626; font: 10px 'Arial', 'DejaVu Sans', 'Liberation Sans', 'Bitstream Vera Sans', sans-serif; text-anchor: middle" x="255.954905" y="321.741812" transform="rotate(-0 255.954905 321.741812)">−0.3</text>
     </g>
    </g>
    <g id="xtick_5">
     <g id="line2d_5">
      <g>
       <use xlink:href="#m2e59e30b8f" x="306.268286" y="307.584" style="fill: #262626; stroke: #262626; stroke-width: 0.8"/>
      </g>
     </g>
     <g id="text_5">
      <text style="fill: #262626; font: 10px 'Arial', 'DejaVu Sans', 'Liberation Sans', 'Bitstream Vera Sans', sans-serif; text-anchor: middle" x="306.268286" y="321.741812" transform="rotate(-0 306.268286 321.741812)">−0.2</text>
     </g>
    </g>
    <g id="xtick_6">
     <g id="line2d_6">
      <g>
       <use xlink:href="#m2e59e30b8f" x="356.581667" y="307.584" style="fill: #262626; stroke: #262626; stroke-width: 0.8"/>
      </g>
     </g>
     <g id="text_6">
      <text style="fill: #262626; font: 10px 'Arial', 'DejaVu Sans', 'Liberation Sans', 'Bitstream Vera Sans', sans-serif; text-anchor: middle" x="356.581667" y="321.741812" transform="rotate(-0 356.581667 321.741812)">−0.1</text>
     </g>
    </g>
    <g id="xtick_7">
     <g id="line2d_7">
      <g>
       <use xlink:href="#m2e59e30b8f" x="406.895048" y="307.584" style="fill: #262626; stroke: #262626; stroke-width: 0.8"/>
      </g>
     </g>
     <g id="text_7">
      <text style="fill: #262626; font: 10px 'Arial', 'DejaVu Sans', 'Liberation Sans', 'Bitstream Vera Sans', sans-serif; text-anchor: middle" x="406.895048" y="321.741812" transform="rotate(-0 406.895048 321.741812)">0.0</text>
     </g>
    </g>
    <g id="text_8">
     <text style="fill: #262626; font: 10px 'Arial', 'DejaVu Sans', 'Liberation Sans', 'Bitstream Vera Sans', sans-serif; text-anchor: middle" x="236.16" y="334.887125" transform="rotate(-0 236.16 334.887125)">metal_charge</text>
    </g>
   </g>
   <g id="matplotlib.axis_2">
    <g id="ytick_1">
     <g id="line2d_8">
      <defs>
       <path id="md5aee60993" d="M 0 0 
L -3.5 0 
" style="stroke: #262626; stroke-width: 0.8"/>
      </defs>
      <g>
       <use xlink:href="#md5aee60993" x="57.6" y="307.584" style="fill: #262626; stroke: #262626; stroke-width: 0.8"/>
      </g>
     </g>
     <g id="text_9">
      <text style="fill: #262626; font: 10px 'Arial', 'DejaVu Sans', 'Liberation Sans', 'Bitstream Vera Sans', sans-serif; text-anchor: end" x="50.6" y="311.162906" transform="rotate(-0 50.6 311.162906)">0</text>
     </g>
    </g>
    <g id="ytick_2">
     <g id="line2d_9">
      <g>
       <use xlink:href="#md5aee60993" x="57.6" y="275.904" style="fill: #262626; stroke: #262626; stroke-width: 0.8"/>
      </g>
     </g>
     <g id="text_10">
      <text style="fill: #262626; font: 10px 'Arial', 'DejaVu Sans', 'Liberation Sans', 'Bitstream Vera Sans', sans-serif; text-anchor: end" x="50.6" y="279.482906" transform="rotate(-0 50.6 279.482906)">5</text>
     </g>
    </g>
    <g id="ytick_3">
     <g id="line2d_10">
      <g>
       <use xlink:href="#md5aee60993" x="57.6" y="244.224" style="fill: #262626; stroke: #262626; stroke-width: 0.8"/>
      </g>
     </g>
     <g id="text_11">
      <text style="fill: #262626; font: 10px 'Arial', 'DejaVu Sans', 'Liberation Sans', 'Bitstream Vera Sans', sans-serif; text-anchor: end" x="50.6" y="247.802906" transform="rotate(-0 50.6 247.802906)">10</text>
     </g>
    </g>
    <g id="ytick_4">
     <g id="line2d_11">
      <g>
       <use xlink:href="#md5aee60993" x="57.6" y="212.544" style="fill: #262626; stroke: #262626; stroke-width: 0.8"/>
      </g>
     </g>
     <g id="text_12">
      <text style="fill: #262626; font: 10px 'Arial', 'DejaVu Sans', 'Liberation Sans', 'Bitstream Vera Sans', sans-serif; text-anchor: end" x="50.6" y="216.122906" transform="rotate(-0 50.6 216.122906)">15</text>
     </g>
    </g>
    <g id="ytick_5">
     <g id="line2d_12">
      <g>
       <use xlink:href="#md5aee60993" x="57.6" y="180.864" style="fill: #262626; stroke: #262626; stroke-width: 0.8"/>
      </g>
     </g>
     <g id="text_13">
      <text style="fill: #262626; font: 10px 'Arial', 'DejaVu Sans', 'Liberation Sans', 'Bitstream Vera Sans', sans-serif; text-anchor: end" x="50.6" y="184.442906" transform="rotate(-0 50.6 184.442906)">20</text>
     </g>
    </g>
    <g id="ytick_6">
     <g id="line2d_13">
      <g>
       <use xlink:href="#md5aee60993" x="57.6" y="149.184" style="fill: #262626; stroke: #262626; stroke-width: 0.8"/>
      </g>
     </g>
     <g id="text_14">
      <text style="fill: #262626; font: 10px 'Arial', 'DejaVu Sans', 'Liberation Sans', 'Bitstream Vera Sans', sans-serif; text-anchor: end" x="50.6" y="152.762906" transform="rotate(-0 50.6 152.762906)">25</text>
     </g>
    </g>
    <g id="ytick_7">
     <g id="line2d_14">
      <g>
       <use xlink:href="#md5aee60993" x="57.6" y="117.504" style="fill: #262626; stroke: #262626; stroke-width: 0.8"/>
      </g>
     </g>
     <g id="text_15">
      <text style="fill: #262626; font: 10px 'Arial', 'DejaVu Sans', 'Liberation Sans', 'Bitstream Vera Sans', sans-serif; text-anchor: end" x="50.6" y="121.082906" transform="rotate(-0 50.6 121.082906)">30</text>
     </g>
    </g>
    <g id="ytick_8">
     <g id="line2d_15">
      <g>
       <use xlink:href="#md5aee60993" x="57.6" y="85.824" style="fill: #262626; stroke: #262626; stroke-width: 0.8"/>
      </g>
     </g>
     <g id="text_16">
      <text style="fill: #262626; font: 10px 'Arial', 'DejaVu Sans', 'Liberation Sans', 'Bitstream Vera Sans', sans-serif; text-anchor: end" x="50.6" y="89.402906" transform="rotate(-0 50.6 89.402906)">35</text>
     </g>
    </g>
    <g id="ytick_9">
     <g id="line2d_16">
      <g>
       <use xlink:href="#md5aee60993" x="57.6" y="54.144" style="fill: #262626; stroke: #262626; stroke-width: 0.8"/>
      </g>
     </g>
     <g id="text_17">
      <text style="fill: #262626; font: 10px 'Arial', 'DejaVu Sans', 'Liberation Sans', 'Bitstream Vera Sans', sans-serif; text-anchor: end" x="50.6" y="57.722906" transform="rotate(-0 50.6 57.722906)">40</text>
     </g>
    </g>
    <g id="text_18">
     <text style="fill: #262626; font: 10px 'Arial', 'DejaVu Sans', 'Liberation Sans', 'Bitstream Vera Sans', sans-serif; text-anchor: middle" x="33.490625" y="174.528" transform="rotate(-90 33.490625 174.528)">Count</text>
    </g>
   </g>
   <g id="patch_3">
    <path d="M 73.832727 307.584 
L 86.818909 307.584 
L 86.818909 301.248 
L 73.832727 301.248 
z
" clip-path="url(#pcd39e09209)" style="fill: #ff7f0e; fill-opacity: 0.5; stroke: #ffffff; stroke-linejoin: miter"/>
   </g>
   <g id="patch_4">
    <path d="M 86.818909 307.584 
L 99.805091 307.584 
L 99.805091 294.912 
L 86.818909 294.912 
z
" clip-path="url(#pcd39e09209)" style="fill: #ff7f0e; fill-opacity: 0.5; stroke: #ffffff; stroke-linejoin: miter"/>
   </g>
   <g id="patch_5">
    <path d="M 99.805091 307.584 
L 112.791273 307.584 
L 112.791273 301.248 
L 99.805091 301.248 
z
" clip-path="url(#pcd39e09209)" style="fill: #ff7f0e; fill-opacity: 0.5; stroke: #ffffff; stroke-linejoin: miter"/>
   </g>
   <g id="patch_6">
    <path d="M 112.791273 307.584 
L 125.777455 307.584 
L 125.777455 294.912 
L 112.791273 294.912 
z
" clip-path="url(#pcd39e09209)" style="fill: #ff7f0e; fill-opacity: 0.5; stroke: #ffffff; stroke-linejoin: miter"/>
   </g>
   <g id="patch_7">
    <path d="M 125.777455 307.584 
L 138.763636 307.584 
L 138.763636 288.576 
L 125.777455 288.576 
z
" clip-path="url(#pcd39e09209)" style="fill: #ff7f0e; fill-opacity: 0.5; stroke: #ffffff; stroke-linejoin: miter"/>
   </g>
   <g id="patch_8">
    <path d="M 138.763636 307.584 
L 151.749818 307.584 
L 151.749818 294.912 
L 138.763636 294.912 
z
" clip-path="url(#pcd39e09209)" style="fill: #ff7f0e; fill-opacity: 0.5; stroke: #ffffff; stroke-linejoin: miter"/>
   </g>
   <g id="patch_9">
    <path d="M 151.749818 307.584 
L 164.736 307.584 
L 164.736 256.896 
L 151.749818 256.896 
z
" clip-path="url(#pcd39e09209)" style="fill: #ff7f0e; fill-opacity: 0.5; stroke: #ffffff; stroke-linejoin: miter"/>
   </g>
   <g id="patch_10">
    <path d="M 164.736 307.584 
L 177.722182 307.584 
L 177.722182 263.232 
L 164.736 263.232 
z
" clip-path="url(#pcd39e09209)" style="fill: #ff7f0e; fill-opacity: 0.5; stroke: #ffffff; stroke-linejoin: miter"/>
   </g>
   <g id="patch_11">
    <path d="M 177.722182 307.584 
L 190.708364 307.584 
L 190.708364 212.544 
L 177.722182 212.544 
z
" clip-path="url(#pcd39e09209)" style="fill: #ff7f0e; fill-opacity: 0.5; stroke: #ffffff; stroke-linejoin: miter"/>
   </g>
   <g id="patch_12">
    <path d="M 190.708364 307.584 
L 203.694545 307.584 
L 203.694545 193.536 
L 190.708364 193.536 
z
" clip-path="url(#pcd39e09209)" style="fill: #ff7f0e; fill-opacity: 0.5; stroke: #ffffff; stroke-linejoin: miter"/>
   </g>
   <g id="patch_13">
    <path d="M 203.694545 307.584 
L 216.680727 307.584 
L 216.680727 193.536 
L 203.694545 193.536 
z
" clip-path="url(#pcd39e09209)" style="fill: #ff7f0e; fill-opacity: 0.5; stroke: #ffffff; stroke-linejoin: miter"/>
   </g>
   <g id="patch_14">
    <path d="M 216.680727 307.584 
L 229.666909 307.584 
L 229.666909 130.176 
L 216.680727 130.176 
z
" clip-path="url(#pcd39e09209)" style="fill: #ff7f0e; fill-opacity: 0.5; stroke: #ffffff; stroke-linejoin: miter"/>
   </g>
   <g id="patch_15">
    <path d="M 229.666909 307.584 
L 242.653091 307.584 
L 242.653091 161.856 
L 229.666909 161.856 
z
" clip-path="url(#pcd39e09209)" style="fill: #ff7f0e; fill-opacity: 0.5; stroke: #ffffff; stroke-linejoin: miter"/>
   </g>
   <g id="patch_16">
    <path d="M 242.653091 307.584 
L 255.639273 307.584 
L 255.639273 199.872 
L 242.653091 199.872 
z
" clip-path="url(#pcd39e09209)" style="fill: #ff7f0e; fill-opacity: 0.5; stroke: #ffffff; stroke-linejoin: miter"/>
   </g>
   <g id="patch_17">
    <path d="M 255.639273 307.584 
L 268.625455 307.584 
L 268.625455 149.184 
L 255.639273 149.184 
z
" clip-path="url(#pcd39e09209)" style="fill: #ff7f0e; fill-opacity: 0.5; stroke: #ffffff; stroke-linejoin: miter"/>
   </g>
   <g id="patch_18">
    <path d="M 268.625455 307.584 
L 281.611636 307.584 
L 281.611636 180.864 
L 268.625455 180.864 
z
" clip-path="url(#pcd39e09209)" style="fill: #ff7f0e; fill-opacity: 0.5; stroke: #ffffff; stroke-linejoin: miter"/>
   </g>
   <g id="patch_19">
    <path d="M 281.611636 307.584 
L 294.597818 307.584 
L 294.597818 193.536 
L 281.611636 193.536 
z
" clip-path="url(#pcd39e09209)" style="fill: #ff7f0e; fill-opacity: 0.5; stroke: #ffffff; stroke-linejoin: miter"/>
   </g>
   <g id="patch_20">
    <path d="M 294.597818 307.584 
L 307.584 307.584 
L 307.584 117.504 
L 294.597818 117.504 
z
" clip-path="url(#pcd39e09209)" style="fill: #ff7f0e; fill-opacity: 0.5; stroke: #ffffff; stroke-linejoin: miter"/>
   </g>
   <g id="patch_21">
    <path d="M 307.584 307.584 
L 320.570182 307.584 
L 320.570182 180.864 
L 307.584 180.864 
z
" clip-path="url(#pcd39e09209)" style="fill: #ff7f0e; fill-opacity: 0.5; stroke: #ffffff; stroke-linejoin: miter"/>
   </g>
   <g id="patch_22">
    <path d="M 320.570182 307.584 
L 333.556364 307.584 
L 333.556364 187.2 
L 320.570182 187.2 
z
" clip-path="url(#pcd39e09209)" style="fill: #ff7f0e; fill-opacity: 0.5; stroke: #ffffff; stroke-linejoin: miter"/>
   </g>
   <g id="patch_23">
    <path d="M 333.556364 307.584 
L 346.542545 307.584 
L 346.542545 206.208 
L 333.556364 206.208 
z
" clip-path="url(#pcd39e09209)" style="fill: #ff7f0e; fill-opacity: 0.5; stroke: #ffffff; stroke-linejoin: miter"/>
   </g>
   <g id="patch_24">
    <path d="M 346.542545 307.584 
L 359.528727 307.584 
L 359.528727 288.576 
L 346.542545 288.576 
z
" clip-path="url(#pcd39e09209)" style="fill: #ff7f0e; fill-opacity: 0.5; stroke: #ffffff; stroke-linejoin: miter"/>
   </g>
   <g id="patch_25">
    <path d="M 359.528727 307.584 
L 372.514909 307.584 
L 372.514909 275.904 
L 359.528727 275.904 
z
" clip-path="url(#pcd39e09209)" style="fill: #ff7f0e; fill-opacity: 0.5; stroke: #ffffff; stroke-linejoin: miter"/>
   </g>
   <g id="patch_26">
    <path d="M 372.514909 307.584 
L 385.501091 307.584 
L 385.501091 294.912 
L 372.514909 294.912 
z
" clip-path="url(#pcd39e09209)" style="fill: #ff7f0e; fill-opacity: 0.5; stroke: #ffffff; stroke-linejoin: miter"/>
   </g>
   <g id="patch_27">
    <path d="M 385.501091 307.584 
L 398.487273 307.584 
L 398.487273 288.576 
L 385.501091 288.576 
z
" clip-path="url(#pcd39e09209)" style="fill: #ff7f0e; fill-opacity: 0.5; stroke: #ffffff; stroke-linejoin: miter"/>
   </g>
   <g id="patch_28">
    <path d="M 73.832727 307.584 
L 86.818909 307.584 
L 86.818909 307.584 
L 73.832727 307.584 
z
" clip-path="url(#pcd39e09209)" style="fill: #1f77b4; fill-opacity: 0.5; stroke: #ffffff; stroke-linejoin: miter"/>
   </g>
   <g id="patch_29">
    <path d="M 86.818909 307.584 
L 99.805091 307.584 
L 99.805091 307.584 
L 86.818909 307.584 
z
" clip-path="url(#pcd39e09209)" style="fill: #1f77b4; fill-opacity: 0.5; stroke: #ffffff; stroke-linejoin: miter"/>
   </g>
   <g id="patch_30">
    <path d="M 99.805091 307.584 
L 112.791273 307.584 
L 112.791273 307.584 
L 99.805091 307.584 
z
" clip-path="url(#pcd39e09209)" style="fill: #1f77b4; fill-opacity: 0.5; stroke: #ffffff; stroke-linejoin: miter"/>
   </g>
   <g id="patch_31">
    <path d="M 112.791273 307.584 
L 125.777455 307.584 
L 125.777455 301.248 
L 112.791273 301.248 
z
" clip-path="url(#pcd39e09209)" style="fill: #1f77b4; fill-opacity: 0.5; stroke: #ffffff; stroke-linejoin: miter"/>
   </g>
   <g id="patch_32">
    <path d="M 125.777455 307.584 
L 138.763636 307.584 
L 138.763636 307.584 
L 125.777455 307.584 
z
" clip-path="url(#pcd39e09209)" style="fill: #1f77b4; fill-opacity: 0.5; stroke: #ffffff; stroke-linejoin: miter"/>
   </g>
   <g id="patch_33">
    <path d="M 138.763636 307.584 
L 151.749818 307.584 
L 151.749818 301.248 
L 138.763636 301.248 
z
" clip-path="url(#pcd39e09209)" style="fill: #1f77b4; fill-opacity: 0.5; stroke: #ffffff; stroke-linejoin: miter"/>
   </g>
   <g id="patch_34">
    <path d="M 151.749818 307.584 
L 164.736 307.584 
L 164.736 263.232 
L 151.749818 263.232 
z
" clip-path="url(#pcd39e09209)" style="fill: #1f77b4; fill-opacity: 0.5; stroke: #ffffff; stroke-linejoin: miter"/>
   </g>
   <g id="patch_35">
    <path d="M 164.736 307.584 
L 177.722182 307.584 
L 177.722182 256.896 
L 164.736 256.896 
z
" clip-path="url(#pcd39e09209)" style="fill: #1f77b4; fill-opacity: 0.5; stroke: #ffffff; stroke-linejoin: miter"/>
   </g>
   <g id="patch_36">
    <path d="M 177.722182 307.584 
L 190.708364 307.584 
L 190.708364 187.2 
L 177.722182 187.2 
z
" clip-path="url(#pcd39e09209)" style="fill: #1f77b4; fill-opacity: 0.5; stroke: #ffffff; stroke-linejoin: miter"/>
   </g>
   <g id="patch_37">
    <path d="M 190.708364 307.584 
L 203.694545 307.584 
L 203.694545 54.144 
L 190.708364 54.144 
z
" clip-path="url(#pcd39e09209)" style="fill: #1f77b4; fill-opacity: 0.5; stroke: #ffffff; stroke-linejoin: miter"/>
   </g>
   <g id="patch_38">
    <path d="M 203.694545 307.584 
L 216.680727 307.584 
L 216.680727 85.824 
L 203.694545 85.824 
z
" clip-path="url(#pcd39e09209)" style="fill: #1f77b4; fill-opacity: 0.5; stroke: #ffffff; stroke-linejoin: miter"/>
   </g>
   <g id="patch_39">
    <path d="M 216.680727 307.584 
L 229.666909 307.584 
L 229.666909 111.168 
L 216.680727 111.168 
z
" clip-path="url(#pcd39e09209)" style="fill: #1f77b4; fill-opacity: 0.5; stroke: #ffffff; stroke-linejoin: miter"/>
   </g>
   <g id="patch_40">
    <path d="M 229.666909 307.584 
L 242.653091 307.584 
L 242.653091 66.816 
L 229.666909 66.816 
z
" clip-path="url(#pcd39e09209)" style="fill: #1f77b4; fill-opacity: 0.5; stroke: #ffffff; stroke-linejoin: miter"/>
   </g>
   <g id="patch_41">
    <path d="M 242.653091 307.584 
L 255.639273 307.584 
L 255.639273 66.816 
L 242.653091 66.816 
z
" clip-path="url(#pcd39e09209)" style="fill: #1f77b4; fill-opacity: 0.5; stroke: #ffffff; stroke-linejoin: miter"/>
   </g>
   <g id="patch_42">
    <path d="M 255.639273 307.584 
L 268.625455 307.584 
L 268.625455 98.496 
L 255.639273 98.496 
z
" clip-path="url(#pcd39e09209)" style="fill: #1f77b4; fill-opacity: 0.5; stroke: #ffffff; stroke-linejoin: miter"/>
   </g>
   <g id="patch_43">
    <path d="M 268.625455 307.584 
L 281.611636 307.584 
L 281.611636 79.488 
L 268.625455 79.488 
z
" clip-path="url(#pcd39e09209)" style="fill: #1f77b4; fill-opacity: 0.5; stroke: #ffffff; stroke-linejoin: miter"/>
   </g>
   <g id="patch_44">
    <path d="M 281.611636 307.584 
L 294.597818 307.584 
L 294.597818 244.224 
L 281.611636 244.224 
z
" clip-path="url(#pcd39e09209)" style="fill: #1f77b4; fill-opacity: 0.5; stroke: #ffffff; stroke-linejoin: miter"/>
   </g>
   <g id="patch_45">
    <path d="M 294.597818 307.584 
L 307.584 307.584 
L 307.584 237.888 
L 294.597818 237.888 
z
" clip-path="url(#pcd39e09209)" style="fill: #1f77b4; fill-opacity: 0.5; stroke: #ffffff; stroke-linejoin: miter"/>
   </g>
   <g id="patch_46">
    <path d="M 307.584 307.584 
L 320.570182 307.584 
L 320.570182 282.24 
L 307.584 282.24 
z
" clip-path="url(#pcd39e09209)" style="fill: #1f77b4; fill-opacity: 0.5; stroke: #ffffff; stroke-linejoin: miter"/>
   </g>
   <g id="patch_47">
    <path d="M 320.570182 307.584 
L 333.556364 307.584 
L 333.556364 301.248 
L 320.570182 301.248 
z
" clip-path="url(#pcd39e09209)" style="fill: #1f77b4; fill-opacity: 0.5; stroke: #ffffff; stroke-linejoin: miter"/>
   </g>
   <g id="patch_48">
    <path d="M 333.556364 307.584 
L 346.542545 307.584 
L 346.542545 301.248 
L 333.556364 301.248 
z
" clip-path="url(#pcd39e09209)" style="fill: #1f77b4; fill-opacity: 0.5; stroke: #ffffff; stroke-linejoin: miter"/>
   </g>
   <g id="patch_49">
    <path d="M 346.542545 307.584 
L 359.528727 307.584 
L 359.528727 307.584 
L 346.542545 307.584 
z
" clip-path="url(#pcd39e09209)" style="fill: #1f77b4; fill-opacity: 0.5; stroke: #ffffff; stroke-linejoin: miter"/>
   </g>
   <g id="patch_50">
    <path d="M 359.528727 307.584 
L 372.514909 307.584 
L 372.514909 307.584 
L 359.528727 307.584 
z
" clip-path="url(#pcd39e09209)" style="fill: #1f77b4; fill-opacity: 0.5; stroke: #ffffff; stroke-linejoin: miter"/>
   </g>
   <g id="patch_51">
    <path d="M 372.514909 307.584 
L 385.501091 307.584 
L 385.501091 307.584 
L 372.514909 307.584 
z
" clip-path="url(#pcd39e09209)" style="fill: #1f77b4; fill-opacity: 0.5; stroke: #ffffff; stroke-linejoin: miter"/>
   </g>
   <g id="patch_52">
    <path d="M 385.501091 307.584 
L 398.487273 307.584 
L 398.487273 307.584 
L 385.501091 307.584 
z
" clip-path="url(#pcd39e09209)" style="fill: #1f77b4; fill-opacity: 0.5; stroke: #ffffff; stroke-linejoin: miter"/>
   </g>
   <g id="patch_53">
    <path d="M 57.6 307.584 
L 57.6 41.472 
" style="fill: none; stroke: #262626; stroke-width: 0.8; stroke-linejoin: miter; stroke-linecap: square"/>
   </g>
   <g id="patch_54">
    <path d="M 414.72 307.584 
L 414.72 41.472 
" style="fill: none; stroke: #262626; stroke-width: 0.8; stroke-linejoin: miter; stroke-linecap: square"/>
   </g>
   <g id="patch_55">
    <path d="M 57.6 307.584 
L 414.72 307.584 
" style="fill: none; stroke: #262626; stroke-width: 0.8; stroke-linejoin: miter; stroke-linecap: square"/>
   </g>
   <g id="patch_56">
    <path d="M 57.6 41.472 
L 414.72 41.472 
" style="fill: none; stroke: #262626; stroke-width: 0.8; stroke-linejoin: miter; stroke-linecap: square"/>
   </g>
   <g id="legend_1">
    <g id="patch_57">
     <path d="M 363.48875 91.907938 
L 407.72 91.907938 
Q 409.72 91.907938 409.72 89.907938 
L 409.72 48.472 
Q 409.72 46.472 407.72 46.472 
L 363.48875 46.472 
Q 361.48875 46.472 361.48875 48.472 
L 361.48875 89.907938 
Q 361.48875 91.907938 363.48875 91.907938 
z
" style="fill: #ffffff; opacity: 0.8; stroke: #cccccc; stroke-linejoin: miter"/>
    </g>
    <g id="text_19">
     <text style="fill: #262626; font: 10px 'Arial', 'DejaVu Sans', 'Liberation Sans', 'Bitstream Vera Sans', sans-serif; text-anchor: start" x="373.378594" y="57.629813" transform="rotate(-0 373.378594 57.629813)">metal</text>
    </g>
    <g id="patch_58">
     <path d="M 365.48875 71.775125 
L 385.48875 71.775125 
L 385.48875 64.775125 
L 365.48875 64.775125 
z
" style="fill: #1f77b4; fill-opacity: 0.5; stroke: #ffffff; stroke-linejoin: miter"/>
    </g>
    <g id="text_20">
     <text style="fill: #262626; font: 10px 'Arial', 'DejaVu Sans', 'Liberation Sans', 'Bitstream Vera Sans', sans-serif; text-anchor: start" x="393.48875" y="71.775125" transform="rotate(-0 393.48875 71.775125)">Pd</text>
    </g>
    <g id="patch_59">
     <path d="M 365.48875 85.920437 
L 385.48875 85.920437 
L 385.48875 78.920437 
L 365.48875 78.920437 
z
" style="fill: #ff7f0e; fill-opacity: 0.5; stroke: #ffffff; stroke-linejoin: miter"/>
    </g>
    <g id="text_21">
     <text style="fill: #262626; font: 10px 'Arial', 'DejaVu Sans', 'Liberation Sans', 'Bitstream Vera Sans', sans-serif; text-anchor: start" x="393.48875" y="85.920437" transform="rotate(-0 393.48875 85.920437)">Ni</text>
    </g>
   </g>
  </g>
 </g>
 <defs>
  <clipPath id="pcd39e09209">
   <rect x="57.6" y="41.472" width="357.12" height="266.112"/>
  </clipPath>
 </defs>
</svg>
