<?xml version="1.0" encoding="utf-8" standalone="no"?>
<!DOCTYPE svg PUBLIC "-//W3C//DTD SVG 1.1//EN"
  "http://www.w3.org/Graphics/SVG/1.1/DTD/svg11.dtd">
<svg xmlns:xlink="http://www.w3.org/1999/xlink" width="460.8pt" height="345.6pt" viewBox="0 0 460.8 345.6" xmlns="http://www.w3.org/2000/svg" version="1.1">
 <metadata>
  <rdf:RDF xmlns:dc="http://purl.org/dc/elements/1.1/" xmlns:cc="http://creativecommons.org/ns#" xmlns:rdf="http://www.w3.org/1999/02/22-rdf-syntax-ns#">
   <cc:Work>
    <dc:type rdf:resource="http://purl.org/dc/dcmitype/StillImage"/>
    <dc:date>2024-01-15T12:42:57.436408</dc:date>
    <dc:format>image/svg+xml</dc:format>
    <dc:creator>
     <cc:Agent>
      <dc:title>Matplotlib v3.6.2, https://matplotlib.org/</dc:title>
     </cc:Agent>
    </dc:creator>
   </cc:Work>
  </rdf:RDF>
 </metadata>
 <defs>
  <style type="text/css">*{stroke-linejoin: round; stroke-linecap: butt}</style>
 </defs>
 <g id="figure_1">
  <g id="patch_1">
   <path d="M 0 345.6 
L 460.8 345.6 
L 460.8 0 
L 0 0 
z
" style="fill: #ffffff"/>
  </g>
  <g id="axes_1">
   <g id="patch_2">
    <path d="M 57.6 307.584 
L 414.72 307.584 
L 414.72 41.472 
L 57.6 41.472 
z
" style="fill: #ffffff"/>
   </g>
   <g id="matplotlib.axis_1">
    <g id="xtick_1">
     <g id="line2d_1">
      <defs>
       <path id="m6a7708ffa3" d="M 0 0 
L 0 3.5 
" style="stroke: #262626; stroke-width: 0.8"/>
      </defs>
      <g>
       <use xlink:href="#m6a7708ffa3" x="94.219016" y="307.584" style="fill: #262626; stroke: #262626; stroke-width: 0.8"/>
      </g>
     </g>
     <g id="text_1">
      <text style="fill: #262626; font: 10px 'Arial', 'DejaVu Sans', 'Liberation Sans', 'Bitstream Vera Sans', sans-serif; text-anchor: middle" x="94.219016" y="321.741812" transform="rotate(-0 94.219016 321.741812)">6.0</text>
     </g>
    </g>
    <g id="xtick_2">
     <g id="line2d_2">
      <g>
       <use xlink:href="#m6a7708ffa3" x="148.210465" y="307.584" style="fill: #262626; stroke: #262626; stroke-width: 0.8"/>
      </g>
     </g>
     <g id="text_2">
      <text style="fill: #262626; font: 10px 'Arial', 'DejaVu Sans', 'Liberation Sans', 'Bitstream Vera Sans', sans-serif; text-anchor: middle" x="148.210465" y="321.741812" transform="rotate(-0 148.210465 321.741812)">6.5</text>
     </g>
    </g>
    <g id="xtick_3">
     <g id="line2d_3">
      <g>
       <use xlink:href="#m6a7708ffa3" x="202.201914" y="307.584" style="fill: #262626; stroke: #262626; stroke-width: 0.8"/>
      </g>
     </g>
     <g id="text_3">
      <text style="fill: #262626; font: 10px 'Arial', 'DejaVu Sans', 'Liberation Sans', 'Bitstream Vera Sans', sans-serif; text-anchor: middle" x="202.201914" y="321.741812" transform="rotate(-0 202.201914 321.741812)">7.0</text>
     </g>
    </g>
    <g id="xtick_4">
     <g id="line2d_4">
      <g>
       <use xlink:href="#m6a7708ffa3" x="256.193363" y="307.584" style="fill: #262626; stroke: #262626; stroke-width: 0.8"/>
      </g>
     </g>
     <g id="text_4">
      <text style="fill: #262626; font: 10px 'Arial', 'DejaVu Sans', 'Liberation Sans', 'Bitstream Vera Sans', sans-serif; text-anchor: middle" x="256.193363" y="321.741812" transform="rotate(-0 256.193363 321.741812)">7.5</text>
     </g>
    </g>
    <g id="xtick_5">
     <g id="line2d_5">
      <g>
       <use xlink:href="#m6a7708ffa3" x="310.184812" y="307.584" style="fill: #262626; stroke: #262626; stroke-width: 0.8"/>
      </g>
     </g>
     <g id="text_5">
      <text style="fill: #262626; font: 10px 'Arial', 'DejaVu Sans', 'Liberation Sans', 'Bitstream Vera Sans', sans-serif; text-anchor: middle" x="310.184812" y="321.741812" transform="rotate(-0 310.184812 321.741812)">8.0</text>
     </g>
    </g>
    <g id="xtick_6">
     <g id="line2d_6">
      <g>
       <use xlink:href="#m6a7708ffa3" x="364.176261" y="307.584" style="fill: #262626; stroke: #262626; stroke-width: 0.8"/>
      </g>
     </g>
     <g id="text_6">
      <text style="fill: #262626; font: 10px 'Arial', 'DejaVu Sans', 'Liberation Sans', 'Bitstream Vera Sans', sans-serif; text-anchor: middle" x="364.176261" y="321.741812" transform="rotate(-0 364.176261 321.741812)">8.5</text>
     </g>
    </g>
    <g id="text_7">
     <text style="fill: #262626; font: 10px 'Arial', 'DejaVu Sans', 'Liberation Sans', 'Bitstream Vera Sans', sans-serif; text-anchor: middle" x="236.16" y="334.887125" transform="rotate(-0 236.16 334.887125)">hlgap</text>
    </g>
   </g>
   <g id="matplotlib.axis_2">
    <g id="ytick_1">
     <g id="line2d_7">
      <defs>
       <path id="mc980322c10" d="M 0 0 
L -3.5 0 
" style="stroke: #262626; stroke-width: 0.8"/>
      </defs>
      <g>
       <use xlink:href="#mc980322c10" x="57.6" y="307.584" style="fill: #262626; stroke: #262626; stroke-width: 0.8"/>
      </g>
     </g>
     <g id="text_8">
      <text style="fill: #262626; font: 10px 'Arial', 'DejaVu Sans', 'Liberation Sans', 'Bitstream Vera Sans', sans-serif; text-anchor: end" x="50.6" y="311.162906" transform="rotate(-0 50.6 311.162906)">0</text>
     </g>
    </g>
    <g id="ytick_2">
     <g id="line2d_8">
      <g>
       <use xlink:href="#mc980322c10" x="57.6" y="270.313412" style="fill: #262626; stroke: #262626; stroke-width: 0.8"/>
      </g>
     </g>
     <g id="text_9">
      <text style="fill: #262626; font: 10px 'Arial', 'DejaVu Sans', 'Liberation Sans', 'Bitstream Vera Sans', sans-serif; text-anchor: end" x="50.6" y="273.892318" transform="rotate(-0 50.6 273.892318)">5</text>
     </g>
    </g>
    <g id="ytick_3">
     <g id="line2d_9">
      <g>
       <use xlink:href="#mc980322c10" x="57.6" y="233.042824" style="fill: #262626; stroke: #262626; stroke-width: 0.8"/>
      </g>
     </g>
     <g id="text_10">
      <text style="fill: #262626; font: 10px 'Arial', 'DejaVu Sans', 'Liberation Sans', 'Bitstream Vera Sans', sans-serif; text-anchor: end" x="50.6" y="236.62173" transform="rotate(-0 50.6 236.62173)">10</text>
     </g>
    </g>
    <g id="ytick_4">
     <g id="line2d_10">
      <g>
       <use xlink:href="#mc980322c10" x="57.6" y="195.772235" style="fill: #262626; stroke: #262626; stroke-width: 0.8"/>
      </g>
     </g>
     <g id="text_11">
      <text style="fill: #262626; font: 10px 'Arial', 'DejaVu Sans', 'Liberation Sans', 'Bitstream Vera Sans', sans-serif; text-anchor: end" x="50.6" y="199.351142" transform="rotate(-0 50.6 199.351142)">15</text>
     </g>
    </g>
    <g id="ytick_5">
     <g id="line2d_11">
      <g>
       <use xlink:href="#mc980322c10" x="57.6" y="158.501647" style="fill: #262626; stroke: #262626; stroke-width: 0.8"/>
      </g>
     </g>
     <g id="text_12">
      <text style="fill: #262626; font: 10px 'Arial', 'DejaVu Sans', 'Liberation Sans', 'Bitstream Vera Sans', sans-serif; text-anchor: end" x="50.6" y="162.080553" transform="rotate(-0 50.6 162.080553)">20</text>
     </g>
    </g>
    <g id="ytick_6">
     <g id="line2d_12">
      <g>
       <use xlink:href="#mc980322c10" x="57.6" y="121.231059" style="fill: #262626; stroke: #262626; stroke-width: 0.8"/>
      </g>
     </g>
     <g id="text_13">
      <text style="fill: #262626; font: 10px 'Arial', 'DejaVu Sans', 'Liberation Sans', 'Bitstream Vera Sans', sans-serif; text-anchor: end" x="50.6" y="124.809965" transform="rotate(-0 50.6 124.809965)">25</text>
     </g>
    </g>
    <g id="ytick_7">
     <g id="line2d_13">
      <g>
       <use xlink:href="#mc980322c10" x="57.6" y="83.960471" style="fill: #262626; stroke: #262626; stroke-width: 0.8"/>
      </g>
     </g>
     <g id="text_14">
      <text style="fill: #262626; font: 10px 'Arial', 'DejaVu Sans', 'Liberation Sans', 'Bitstream Vera Sans', sans-serif; text-anchor: end" x="50.6" y="87.539377" transform="rotate(-0 50.6 87.539377)">30</text>
     </g>
    </g>
    <g id="ytick_8">
     <g id="line2d_14">
      <g>
       <use xlink:href="#mc980322c10" x="57.6" y="46.689882" style="fill: #262626; stroke: #262626; stroke-width: 0.8"/>
      </g>
     </g>
     <g id="text_15">
      <text style="fill: #262626; font: 10px 'Arial', 'DejaVu Sans', 'Liberation Sans', 'Bitstream Vera Sans', sans-serif; text-anchor: end" x="50.6" y="50.268789" transform="rotate(-0 50.6 50.268789)">35</text>
     </g>
    </g>
    <g id="text_16">
     <text style="fill: #262626; font: 10px 'Arial', 'DejaVu Sans', 'Liberation Sans', 'Bitstream Vera Sans', sans-serif; text-anchor: middle" x="33.490625" y="174.528" transform="rotate(-90 33.490625 174.528)">Count</text>
    </g>
   </g>
   <g id="patch_3">
    <path d="M 73.832727 307.584 
L 86.818909 307.584 
L 86.818909 292.675765 
L 73.832727 292.675765 
z
" clip-path="url(#p94d688e2d8)" style="fill: #ff7f0e; fill-opacity: 0.5; stroke: #ffffff; stroke-linejoin: miter"/>
   </g>
   <g id="patch_4">
    <path d="M 86.818909 307.584 
L 99.805091 307.584 
L 99.805091 307.584 
L 86.818909 307.584 
z
" clip-path="url(#p94d688e2d8)" style="fill: #ff7f0e; fill-opacity: 0.5; stroke: #ffffff; stroke-linejoin: miter"/>
   </g>
   <g id="patch_5">
    <path d="M 99.805091 307.584 
L 112.791273 307.584 
L 112.791273 300.129882 
L 99.805091 300.129882 
z
" clip-path="url(#p94d688e2d8)" style="fill: #ff7f0e; fill-opacity: 0.5; stroke: #ffffff; stroke-linejoin: miter"/>
   </g>
   <g id="patch_6">
    <path d="M 112.791273 307.584 
L 125.777455 307.584 
L 125.777455 292.675765 
L 112.791273 292.675765 
z
" clip-path="url(#p94d688e2d8)" style="fill: #ff7f0e; fill-opacity: 0.5; stroke: #ffffff; stroke-linejoin: miter"/>
   </g>
   <g id="patch_7">
    <path d="M 125.777455 307.584 
L 138.763636 307.584 
L 138.763636 262.859294 
L 125.777455 262.859294 
z
" clip-path="url(#p94d688e2d8)" style="fill: #ff7f0e; fill-opacity: 0.5; stroke: #ffffff; stroke-linejoin: miter"/>
   </g>
   <g id="patch_8">
    <path d="M 138.763636 307.584 
L 151.749818 307.584 
L 151.749818 180.864 
L 138.763636 180.864 
z
" clip-path="url(#p94d688e2d8)" style="fill: #ff7f0e; fill-opacity: 0.5; stroke: #ffffff; stroke-linejoin: miter"/>
   </g>
   <g id="patch_9">
    <path d="M 151.749818 307.584 
L 164.736 307.584 
L 164.736 203.226353 
L 151.749818 203.226353 
z
" clip-path="url(#p94d688e2d8)" style="fill: #ff7f0e; fill-opacity: 0.5; stroke: #ffffff; stroke-linejoin: miter"/>
   </g>
   <g id="patch_10">
    <path d="M 164.736 307.584 
L 177.722182 307.584 
L 177.722182 151.047529 
L 164.736 151.047529 
z
" clip-path="url(#p94d688e2d8)" style="fill: #ff7f0e; fill-opacity: 0.5; stroke: #ffffff; stroke-linejoin: miter"/>
   </g>
   <g id="patch_11">
    <path d="M 177.722182 307.584 
L 190.708364 307.584 
L 190.708364 195.772235 
L 177.722182 195.772235 
z
" clip-path="url(#p94d688e2d8)" style="fill: #ff7f0e; fill-opacity: 0.5; stroke: #ffffff; stroke-linejoin: miter"/>
   </g>
   <g id="patch_12">
    <path d="M 190.708364 307.584 
L 203.694545 307.584 
L 203.694545 180.864 
L 190.708364 180.864 
z
" clip-path="url(#p94d688e2d8)" style="fill: #ff7f0e; fill-opacity: 0.5; stroke: #ffffff; stroke-linejoin: miter"/>
   </g>
   <g id="patch_13">
    <path d="M 203.694545 307.584 
L 216.680727 307.584 
L 216.680727 195.772235 
L 203.694545 195.772235 
z
" clip-path="url(#p94d688e2d8)" style="fill: #ff7f0e; fill-opacity: 0.5; stroke: #ffffff; stroke-linejoin: miter"/>
   </g>
   <g id="patch_14">
    <path d="M 216.680727 307.584 
L 229.666909 307.584 
L 229.666909 180.864 
L 216.680727 180.864 
z
" clip-path="url(#p94d688e2d8)" style="fill: #ff7f0e; fill-opacity: 0.5; stroke: #ffffff; stroke-linejoin: miter"/>
   </g>
   <g id="patch_15">
    <path d="M 229.666909 307.584 
L 242.653091 307.584 
L 242.653091 151.047529 
L 229.666909 151.047529 
z
" clip-path="url(#p94d688e2d8)" style="fill: #ff7f0e; fill-opacity: 0.5; stroke: #ffffff; stroke-linejoin: miter"/>
   </g>
   <g id="patch_16">
    <path d="M 242.653091 307.584 
L 255.639273 307.584 
L 255.639273 151.047529 
L 242.653091 151.047529 
z
" clip-path="url(#p94d688e2d8)" style="fill: #ff7f0e; fill-opacity: 0.5; stroke: #ffffff; stroke-linejoin: miter"/>
   </g>
   <g id="patch_17">
    <path d="M 255.639273 307.584 
L 268.625455 307.584 
L 268.625455 151.047529 
L 255.639273 151.047529 
z
" clip-path="url(#p94d688e2d8)" style="fill: #ff7f0e; fill-opacity: 0.5; stroke: #ffffff; stroke-linejoin: miter"/>
   </g>
   <g id="patch_18">
    <path d="M 268.625455 307.584 
L 281.611636 307.584 
L 281.611636 128.685176 
L 268.625455 128.685176 
z
" clip-path="url(#p94d688e2d8)" style="fill: #ff7f0e; fill-opacity: 0.5; stroke: #ffffff; stroke-linejoin: miter"/>
   </g>
   <g id="patch_19">
    <path d="M 281.611636 307.584 
L 294.597818 307.584 
L 294.597818 98.868706 
L 281.611636 98.868706 
z
" clip-path="url(#p94d688e2d8)" style="fill: #ff7f0e; fill-opacity: 0.5; stroke: #ffffff; stroke-linejoin: miter"/>
   </g>
   <g id="patch_20">
    <path d="M 294.597818 307.584 
L 307.584 307.584 
L 307.584 151.047529 
L 294.597818 151.047529 
z
" clip-path="url(#p94d688e2d8)" style="fill: #ff7f0e; fill-opacity: 0.5; stroke: #ffffff; stroke-linejoin: miter"/>
   </g>
   <g id="patch_21">
    <path d="M 307.584 307.584 
L 320.570182 307.584 
L 320.570182 188.318118 
L 307.584 188.318118 
z
" clip-path="url(#p94d688e2d8)" style="fill: #ff7f0e; fill-opacity: 0.5; stroke: #ffffff; stroke-linejoin: miter"/>
   </g>
   <g id="patch_22">
    <path d="M 320.570182 307.584 
L 333.556364 307.584 
L 333.556364 173.409882 
L 320.570182 173.409882 
z
" clip-path="url(#p94d688e2d8)" style="fill: #ff7f0e; fill-opacity: 0.5; stroke: #ffffff; stroke-linejoin: miter"/>
   </g>
   <g id="patch_23">
    <path d="M 333.556364 307.584 
L 346.542545 307.584 
L 346.542545 285.221647 
L 333.556364 285.221647 
z
" clip-path="url(#p94d688e2d8)" style="fill: #ff7f0e; fill-opacity: 0.5; stroke: #ffffff; stroke-linejoin: miter"/>
   </g>
   <g id="patch_24">
    <path d="M 346.542545 307.584 
L 359.528727 307.584 
L 359.528727 292.675765 
L 346.542545 292.675765 
z
" clip-path="url(#p94d688e2d8)" style="fill: #ff7f0e; fill-opacity: 0.5; stroke: #ffffff; stroke-linejoin: miter"/>
   </g>
   <g id="patch_25">
    <path d="M 359.528727 307.584 
L 372.514909 307.584 
L 372.514909 285.221647 
L 359.528727 285.221647 
z
" clip-path="url(#p94d688e2d8)" style="fill: #ff7f0e; fill-opacity: 0.5; stroke: #ffffff; stroke-linejoin: miter"/>
   </g>
   <g id="patch_26">
    <path d="M 372.514909 307.584 
L 385.501091 307.584 
L 385.501091 300.129882 
L 372.514909 300.129882 
z
" clip-path="url(#p94d688e2d8)" style="fill: #ff7f0e; fill-opacity: 0.5; stroke: #ffffff; stroke-linejoin: miter"/>
   </g>
   <g id="patch_27">
    <path d="M 385.501091 307.584 
L 398.487273 307.584 
L 398.487273 307.584 
L 385.501091 307.584 
z
" clip-path="url(#p94d688e2d8)" style="fill: #ff7f0e; fill-opacity: 0.5; stroke: #ffffff; stroke-linejoin: miter"/>
   </g>
   <g id="patch_28">
    <path d="M 73.832727 307.584 
L 86.818909 307.584 
L 86.818909 307.584 
L 73.832727 307.584 
z
" clip-path="url(#p94d688e2d8)" style="fill: #1f77b4; fill-opacity: 0.5; stroke: #ffffff; stroke-linejoin: miter"/>
   </g>
   <g id="patch_29">
    <path d="M 86.818909 307.584 
L 99.805091 307.584 
L 99.805091 307.584 
L 86.818909 307.584 
z
" clip-path="url(#p94d688e2d8)" style="fill: #1f77b4; fill-opacity: 0.5; stroke: #ffffff; stroke-linejoin: miter"/>
   </g>
   <g id="patch_30">
    <path d="M 99.805091 307.584 
L 112.791273 307.584 
L 112.791273 292.675765 
L 99.805091 292.675765 
z
" clip-path="url(#p94d688e2d8)" style="fill: #1f77b4; fill-opacity: 0.5; stroke: #ffffff; stroke-linejoin: miter"/>
   </g>
   <g id="patch_31">
    <path d="M 112.791273 307.584 
L 125.777455 307.584 
L 125.777455 300.129882 
L 112.791273 300.129882 
z
" clip-path="url(#p94d688e2d8)" style="fill: #1f77b4; fill-opacity: 0.5; stroke: #ffffff; stroke-linejoin: miter"/>
   </g>
   <g id="patch_32">
    <path d="M 125.777455 307.584 
L 138.763636 307.584 
L 138.763636 307.584 
L 125.777455 307.584 
z
" clip-path="url(#p94d688e2d8)" style="fill: #1f77b4; fill-opacity: 0.5; stroke: #ffffff; stroke-linejoin: miter"/>
   </g>
   <g id="patch_33">
    <path d="M 138.763636 307.584 
L 151.749818 307.584 
L 151.749818 262.859294 
L 138.763636 262.859294 
z
" clip-path="url(#p94d688e2d8)" style="fill: #1f77b4; fill-opacity: 0.5; stroke: #ffffff; stroke-linejoin: miter"/>
   </g>
   <g id="patch_34">
    <path d="M 151.749818 307.584 
L 164.736 307.584 
L 164.736 247.951059 
L 151.749818 247.951059 
z
" clip-path="url(#p94d688e2d8)" style="fill: #1f77b4; fill-opacity: 0.5; stroke: #ffffff; stroke-linejoin: miter"/>
   </g>
   <g id="patch_35">
    <path d="M 164.736 307.584 
L 177.722182 307.584 
L 177.722182 210.680471 
L 164.736 210.680471 
z
" clip-path="url(#p94d688e2d8)" style="fill: #1f77b4; fill-opacity: 0.5; stroke: #ffffff; stroke-linejoin: miter"/>
   </g>
   <g id="patch_36">
    <path d="M 177.722182 307.584 
L 190.708364 307.584 
L 190.708364 173.409882 
L 177.722182 173.409882 
z
" clip-path="url(#p94d688e2d8)" style="fill: #1f77b4; fill-opacity: 0.5; stroke: #ffffff; stroke-linejoin: miter"/>
   </g>
   <g id="patch_37">
    <path d="M 190.708364 307.584 
L 203.694545 307.584 
L 203.694545 165.955765 
L 190.708364 165.955765 
z
" clip-path="url(#p94d688e2d8)" style="fill: #1f77b4; fill-opacity: 0.5; stroke: #ffffff; stroke-linejoin: miter"/>
   </g>
   <g id="patch_38">
    <path d="M 203.694545 307.584 
L 216.680727 307.584 
L 216.680727 165.955765 
L 203.694545 165.955765 
z
" clip-path="url(#p94d688e2d8)" style="fill: #1f77b4; fill-opacity: 0.5; stroke: #ffffff; stroke-linejoin: miter"/>
   </g>
   <g id="patch_39">
    <path d="M 216.680727 307.584 
L 229.666909 307.584 
L 229.666909 195.772235 
L 216.680727 195.772235 
z
" clip-path="url(#p94d688e2d8)" style="fill: #1f77b4; fill-opacity: 0.5; stroke: #ffffff; stroke-linejoin: miter"/>
   </g>
   <g id="patch_40">
    <path d="M 229.666909 307.584 
L 242.653091 307.584 
L 242.653091 128.685176 
L 229.666909 128.685176 
z
" clip-path="url(#p94d688e2d8)" style="fill: #1f77b4; fill-opacity: 0.5; stroke: #ffffff; stroke-linejoin: miter"/>
   </g>
   <g id="patch_41">
    <path d="M 242.653091 307.584 
L 255.639273 307.584 
L 255.639273 195.772235 
L 242.653091 195.772235 
z
" clip-path="url(#p94d688e2d8)" style="fill: #1f77b4; fill-opacity: 0.5; stroke: #ffffff; stroke-linejoin: miter"/>
   </g>
   <g id="patch_42">
    <path d="M 255.639273 307.584 
L 268.625455 307.584 
L 268.625455 143.593412 
L 255.639273 143.593412 
z
" clip-path="url(#p94d688e2d8)" style="fill: #1f77b4; fill-opacity: 0.5; stroke: #ffffff; stroke-linejoin: miter"/>
   </g>
   <g id="patch_43">
    <path d="M 268.625455 307.584 
L 281.611636 307.584 
L 281.611636 158.501647 
L 268.625455 158.501647 
z
" clip-path="url(#p94d688e2d8)" style="fill: #1f77b4; fill-opacity: 0.5; stroke: #ffffff; stroke-linejoin: miter"/>
   </g>
   <g id="patch_44">
    <path d="M 281.611636 307.584 
L 294.597818 307.584 
L 294.597818 165.955765 
L 281.611636 165.955765 
z
" clip-path="url(#p94d688e2d8)" style="fill: #1f77b4; fill-opacity: 0.5; stroke: #ffffff; stroke-linejoin: miter"/>
   </g>
   <g id="patch_45">
    <path d="M 294.597818 307.584 
L 307.584 307.584 
L 307.584 69.052235 
L 294.597818 69.052235 
z
" clip-path="url(#p94d688e2d8)" style="fill: #1f77b4; fill-opacity: 0.5; stroke: #ffffff; stroke-linejoin: miter"/>
   </g>
   <g id="patch_46">
    <path d="M 307.584 307.584 
L 320.570182 307.584 
L 320.570182 54.144 
L 307.584 54.144 
z
" clip-path="url(#p94d688e2d8)" style="fill: #1f77b4; fill-opacity: 0.5; stroke: #ffffff; stroke-linejoin: miter"/>
   </g>
   <g id="patch_47">
    <path d="M 320.570182 307.584 
L 333.556364 307.584 
L 333.556364 69.052235 
L 320.570182 69.052235 
z
" clip-path="url(#p94d688e2d8)" style="fill: #1f77b4; fill-opacity: 0.5; stroke: #ffffff; stroke-linejoin: miter"/>
   </g>
   <g id="patch_48">
    <path d="M 333.556364 307.584 
L 346.542545 307.584 
L 346.542545 255.405176 
L 333.556364 255.405176 
z
" clip-path="url(#p94d688e2d8)" style="fill: #1f77b4; fill-opacity: 0.5; stroke: #ffffff; stroke-linejoin: miter"/>
   </g>
   <g id="patch_49">
    <path d="M 346.542545 307.584 
L 359.528727 307.584 
L 359.528727 277.767529 
L 346.542545 277.767529 
z
" clip-path="url(#p94d688e2d8)" style="fill: #1f77b4; fill-opacity: 0.5; stroke: #ffffff; stroke-linejoin: miter"/>
   </g>
   <g id="patch_50">
    <path d="M 359.528727 307.584 
L 372.514909 307.584 
L 372.514909 307.584 
L 359.528727 307.584 
z
" clip-path="url(#p94d688e2d8)" style="fill: #1f77b4; fill-opacity: 0.5; stroke: #ffffff; stroke-linejoin: miter"/>
   </g>
   <g id="patch_51">
    <path d="M 372.514909 307.584 
L 385.501091 307.584 
L 385.501091 285.221647 
L 372.514909 285.221647 
z
" clip-path="url(#p94d688e2d8)" style="fill: #1f77b4; fill-opacity: 0.5; stroke: #ffffff; stroke-linejoin: miter"/>
   </g>
   <g id="patch_52">
    <path d="M 385.501091 307.584 
L 398.487273 307.584 
L 398.487273 300.129882 
L 385.501091 300.129882 
z
" clip-path="url(#p94d688e2d8)" style="fill: #1f77b4; fill-opacity: 0.5; stroke: #ffffff; stroke-linejoin: miter"/>
   </g>
   <g id="patch_53">
    <path d="M 57.6 307.584 
L 57.6 41.472 
" style="fill: none; stroke: #262626; stroke-width: 0.8; stroke-linejoin: miter; stroke-linecap: square"/>
   </g>
   <g id="patch_54">
    <path d="M 414.72 307.584 
L 414.72 41.472 
" style="fill: none; stroke: #262626; stroke-width: 0.8; stroke-linejoin: miter; stroke-linecap: square"/>
   </g>
   <g id="patch_55">
    <path d="M 57.6 307.584 
L 414.72 307.584 
" style="fill: none; stroke: #262626; stroke-width: 0.8; stroke-linejoin: miter; stroke-linecap: square"/>
   </g>
   <g id="patch_56">
    <path d="M 57.6 41.472 
L 414.72 41.472 
" style="fill: none; stroke: #262626; stroke-width: 0.8; stroke-linejoin: miter; stroke-linecap: square"/>
   </g>
   <g id="legend_1">
    <g id="patch_57">
     <path d="M 363.48875 91.907938 
L 407.72 91.907938 
Q 409.72 91.907938 409.72 89.907938 
L 409.72 48.472 
Q 409.72 46.472 407.72 46.472 
L 363.48875 46.472 
Q 361.48875 46.472 361.48875 48.472 
L 361.48875 89.907938 
Q 361.48875 91.907938 363.48875 91.907938 
z
" style="fill: #ffffff; opacity: 0.8; stroke: #cccccc; stroke-linejoin: miter"/>
    </g>
    <g id="text_17">
     <text style="fill: #262626; font: 10px 'Arial', 'DejaVu Sans', 'Liberation Sans', 'Bitstream Vera Sans', sans-serif; text-anchor: start" x="373.378594" y="57.629813" transform="rotate(-0 373.378594 57.629813)">metal</text>
    </g>
    <g id="patch_58">
     <path d="M 365.48875 71.775125 
L 385.48875 71.775125 
L 385.48875 64.775125 
L 365.48875 64.775125 
z
" style="fill: #1f77b4; fill-opacity: 0.5; stroke: #ffffff; stroke-linejoin: miter"/>
    </g>
    <g id="text_18">
     <text style="fill: #262626; font: 10px 'Arial', 'DejaVu Sans', 'Liberation Sans', 'Bitstream Vera Sans', sans-serif; text-anchor: start" x="393.48875" y="71.775125" transform="rotate(-0 393.48875 71.775125)">Pd</text>
    </g>
    <g id="patch_59">
     <path d="M 365.48875 85.920437 
L 385.48875 85.920437 
L 385.48875 78.920437 
L 365.48875 78.920437 
z
" style="fill: #ff7f0e; fill-opacity: 0.5; stroke: #ffffff; stroke-linejoin: miter"/>
    </g>
    <g id="text_19">
     <text style="fill: #262626; font: 10px 'Arial', 'DejaVu Sans', 'Liberation Sans', 'Bitstream Vera Sans', sans-serif; text-anchor: start" x="393.48875" y="85.920437" transform="rotate(-0 393.48875 85.920437)">Ni</text>
    </g>
   </g>
  </g>
 </g>
 <defs>
  <clipPath id="p94d688e2d8">
   <rect x="57.6" y="41.472" width="357.12" height="266.112"/>
  </clipPath>
 </defs>
</svg>
