<?xml version="1.0" encoding="utf-8" standalone="no"?>
<!DOCTYPE svg PUBLIC "-//W3C//DTD SVG 1.1//EN"
  "http://www.w3.org/Graphics/SVG/1.1/DTD/svg11.dtd">
<svg xmlns:xlink="http://www.w3.org/1999/xlink" width="1440pt" height="720pt" viewBox="0 0 1440 720" xmlns="http://www.w3.org/2000/svg" version="1.1">
 <metadata>
  <rdf:RDF xmlns:dc="http://purl.org/dc/elements/1.1/" xmlns:cc="http://creativecommons.org/ns#" xmlns:rdf="http://www.w3.org/1999/02/22-rdf-syntax-ns#">
   <cc:Work>
    <dc:type rdf:resource="http://purl.org/dc/dcmitype/StillImage"/>
    <dc:date>2023-04-05T12:27:35.040745</dc:date>
    <dc:format>image/svg+xml</dc:format>
    <dc:creator>
     <cc:Agent>
      <dc:title>Matplotlib v3.6.2, https://matplotlib.org/</dc:title>
     </cc:Agent>
    </dc:creator>
   </cc:Work>
  </rdf:RDF>
 </metadata>
 <defs>
  <style type="text/css">*{stroke-linejoin: round; stroke-linecap: butt}</style>
 </defs>
 <g id="figure_1">
  <g id="patch_1">
   <path d="M 0 720 
L 1440 720 
L 1440 0 
L 0 0 
z
" style="fill: #ffffff"/>
  </g>
  <g id="axes_1">
   <g id="matplotlib.axis_1"/>
   <g id="matplotlib.axis_2">
    <g id="ytick_1">
     <g id="line2d_1">
      <path d="M 738 269.352 
C 725.623466 269.352 713.367278 271.789907 701.932852 276.526202 
C 690.498425 281.262496 680.108131 288.205069 671.3566 296.9566 
C 662.605069 305.708131 655.662496 316.098425 650.926202 327.532852 
C 646.189907 338.967278 643.752 351.223466 643.752 363.6 
C 643.752 375.976534 646.189907 388.232722 650.926202 399.667148 
C 655.662496 411.101575 662.605069 421.491869 671.3566 430.2434 
C 680.108131 438.994931 690.498425 445.937504 701.932852 450.673798 
C 713.367278 455.410093 725.623466 457.848 738 457.848 
C 750.376534 457.848 762.632722 455.410093 774.067148 450.673798 
C 785.501575 445.937504 795.891869 438.994931 804.6434 430.2434 
C 813.394931 421.491869 820.337504 411.101575 825.073798 399.667148 
C 829.810093 388.232722 832.248 375.976534 832.248 363.6 
C 832.248 351.223466 829.810093 338.967278 825.073798 327.532852 
C 820.337504 316.098425 813.394931 305.708131 804.6434 296.9566 
C 795.891869 288.205069 785.501575 281.262496 774.067148 276.526202 
C 762.632722 271.789907 750.376534 269.352 738 269.352 
" clip-path="url(#p2980cd417f)" style="fill: none; stroke-dasharray: 2.96,1.28; stroke-dashoffset: 0; stroke: #808080; stroke-width: 0.8"/>
     </g>
     <g id="text_1">
      <!-- 100 -->
      <g transform="translate(701.932852 274.446514) scale(0.1 -0.1)">
       <defs>
        <path id="DejaVuSans-31" d="M 794 531 
L 1825 531 
L 1825 4091 
L 703 3866 
L 703 4441 
L 1819 4666 
L 2450 4666 
L 2450 531 
L 3481 531 
L 3481 0 
L 794 0 
L 794 531 
z
" transform="scale(0.015625)"/>
        <path id="DejaVuSans-30" d="M 2034 4250 
Q 1547 4250 1301 3770 
Q 1056 3291 1056 2328 
Q 1056 1369 1301 889 
Q 1547 409 2034 409 
Q 2525 409 2770 889 
Q 3016 1369 3016 2328 
Q 3016 3291 2770 3770 
Q 2525 4250 2034 4250 
z
M 2034 4750 
Q 2819 4750 3233 4129 
Q 3647 3509 3647 2328 
Q 3647 1150 3233 529 
Q 2819 -91 2034 -91 
Q 1250 -91 836 529 
Q 422 1150 422 2328 
Q 422 3509 836 4129 
Q 1250 4750 2034 4750 
z
" transform="scale(0.015625)"/>
       </defs>
       <use xlink:href="#DejaVuSans-31"/>
       <use xlink:href="#DejaVuSans-30" x="63.623047"/>
       <use xlink:href="#DejaVuSans-30" x="127.246094"/>
      </g>
     </g>
    </g>
    <g id="ytick_2">
     <g id="line2d_2">
      <path d="M 738 234.24 
C 721.0126 234.24 704.190382 237.586147 688.496071 244.086944 
C 672.80176 250.58774 658.540572 260.116761 646.528667 272.128667 
C 634.516761 284.140572 624.98774 298.40176 618.486944 314.096071 
C 611.986147 329.790382 608.64 346.6126 608.64 363.6 
C 608.64 380.5874 611.986147 397.409618 618.486944 413.103929 
C 624.98774 428.79824 634.516761 443.059428 646.528667 455.071333 
C 658.540572 467.083239 672.80176 476.61226 688.496071 483.113056 
C 704.190382 489.613853 721.0126 492.96 738 492.96 
C 754.9874 492.96 771.809618 489.613853 787.503929 483.113056 
C 803.19824 476.61226 817.459428 467.083239 829.471333 455.071333 
C 841.483239 443.059428 851.01226 428.79824 857.513056 413.103929 
C 864.013853 397.409618 867.36 380.5874 867.36 363.6 
C 867.36 346.6126 864.013853 329.790382 857.513056 314.096071 
C 851.01226 298.40176 841.483239 284.140572 829.471333 272.128667 
C 817.459428 260.116761 803.19824 250.58774 787.503929 244.086944 
C 771.809618 237.586147 754.9874 234.24 738 234.24 
" clip-path="url(#p2980cd417f)" style="fill: none; stroke-dasharray: 2.96,1.28; stroke-dashoffset: 0; stroke: #808080; stroke-width: 0.8"/>
     </g>
     <g id="text_2">
      <!-- 2000 -->
      <g transform="translate(688.496071 242.007256) scale(0.1 -0.1)">
       <defs>
        <path id="DejaVuSans-32" d="M 1228 531 
L 3431 531 
L 3431 0 
L 469 0 
L 469 531 
Q 828 903 1448 1529 
Q 2069 2156 2228 2338 
Q 2531 2678 2651 2914 
Q 2772 3150 2772 3378 
Q 2772 3750 2511 3984 
Q 2250 4219 1831 4219 
Q 1534 4219 1204 4116 
Q 875 4013 500 3803 
L 500 4441 
Q 881 4594 1212 4672 
Q 1544 4750 1819 4750 
Q 2544 4750 2975 4387 
Q 3406 4025 3406 3419 
Q 3406 3131 3298 2873 
Q 3191 2616 2906 2266 
Q 2828 2175 2409 1742 
Q 1991 1309 1228 531 
z
" transform="scale(0.015625)"/>
       </defs>
       <use xlink:href="#DejaVuSans-32"/>
       <use xlink:href="#DejaVuSans-30" x="63.623047"/>
       <use xlink:href="#DejaVuSans-30" x="127.246094"/>
       <use xlink:href="#DejaVuSans-30" x="190.869141"/>
      </g>
     </g>
    </g>
    <g id="ytick_3">
     <g id="line2d_3">
      <path d="M 738 197.28 
C 716.159058 197.28 694.530491 201.582189 674.352092 209.940356 
C 654.173692 218.298523 635.837879 230.550122 620.394 245.994 
C 604.950122 261.437879 592.698523 279.773692 584.340356 299.952092 
C 575.982189 320.130491 571.68 341.759058 571.68 363.6 
C 571.68 385.440942 575.982189 407.069509 584.340356 427.247908 
C 592.698523 447.426308 604.950122 465.762121 620.394 481.206 
C 635.837879 496.649878 654.173692 508.901477 674.352092 517.259644 
C 694.530491 525.617811 716.159058 529.92 738 529.92 
C 759.840942 529.92 781.469509 525.617811 801.647908 517.259644 
C 821.826308 508.901477 840.162121 496.649878 855.606 481.206 
C 871.049878 465.762121 883.301477 447.426308 891.659644 427.247908 
C 900.017811 407.069509 904.32 385.440942 904.32 363.6 
C 904.32 341.759058 900.017811 320.130491 891.659644 299.952092 
C 883.301477 279.773692 871.049878 261.437879 855.606 245.994 
C 840.162121 230.550122 821.826308 218.298523 801.647908 209.940356 
C 781.469509 201.582189 759.840942 197.28 738 197.28 
" clip-path="url(#p2980cd417f)" style="fill: none; stroke-dasharray: 2.96,1.28; stroke-dashoffset: 0; stroke: #808080; stroke-width: 0.8"/>
     </g>
     <g id="text_3">
      <!-- 4000 -->
      <g transform="translate(674.352092 207.860669) scale(0.1 -0.1)">
       <defs>
        <path id="DejaVuSans-34" d="M 2419 4116 
L 825 1625 
L 2419 1625 
L 2419 4116 
z
M 2253 4666 
L 3047 4666 
L 3047 1625 
L 3713 1625 
L 3713 1100 
L 3047 1100 
L 3047 0 
L 2419 0 
L 2419 1100 
L 313 1100 
L 313 1709 
L 2253 4666 
z
" transform="scale(0.015625)"/>
       </defs>
       <use xlink:href="#DejaVuSans-34"/>
       <use xlink:href="#DejaVuSans-30" x="63.623047"/>
       <use xlink:href="#DejaVuSans-30" x="127.246094"/>
       <use xlink:href="#DejaVuSans-30" x="190.869141"/>
      </g>
     </g>
    </g>
    <g id="ytick_4">
     <g id="line2d_4">
      <path d="M 738 160.32 
C 711.305515 160.32 684.8706 165.578231 660.208112 175.793769 
C 635.545624 186.009306 613.135185 200.983482 594.259334 219.859334 
C 575.383482 238.735185 560.409306 261.145624 550.193769 285.808112 
C 539.978231 310.4706 534.72 336.905515 534.72 363.6 
C 534.72 390.294485 539.978231 416.7294 550.193769 441.391888 
C 560.409306 466.054376 575.383482 488.464815 594.259334 507.340666 
C 613.135185 526.216518 635.545624 541.190694 660.208112 551.406231 
C 684.8706 561.621769 711.305515 566.88 738 566.88 
C 764.694485 566.88 791.1294 561.621769 815.791888 551.406231 
C 840.454376 541.190694 862.864815 526.216518 881.740666 507.340666 
C 900.616518 488.464815 915.590694 466.054376 925.806231 441.391888 
C 936.021769 416.7294 941.28 390.294485 941.28 363.6 
C 941.28 336.905515 936.021769 310.4706 925.806231 285.808112 
C 915.590694 261.145624 900.616518 238.735185 881.740666 219.859334 
C 862.864815 200.983482 840.454376 186.009306 815.791888 175.793769 
C 791.1294 165.578231 764.694485 160.32 738 160.32 
" clip-path="url(#p2980cd417f)" style="fill: none; stroke-dasharray: 2.96,1.28; stroke-dashoffset: 0; stroke: #808080; stroke-width: 0.8"/>
     </g>
     <g id="text_4">
      <!-- 6000 -->
      <g transform="translate(660.208112 173.714081) scale(0.1 -0.1)">
       <defs>
        <path id="DejaVuSans-36" d="M 2113 2584 
Q 1688 2584 1439 2293 
Q 1191 2003 1191 1497 
Q 1191 994 1439 701 
Q 1688 409 2113 409 
Q 2538 409 2786 701 
Q 3034 994 3034 1497 
Q 3034 2003 2786 2293 
Q 2538 2584 2113 2584 
z
M 3366 4563 
L 3366 3988 
Q 3128 4100 2886 4159 
Q 2644 4219 2406 4219 
Q 1781 4219 1451 3797 
Q 1122 3375 1075 2522 
Q 1259 2794 1537 2939 
Q 1816 3084 2150 3084 
Q 2853 3084 3261 2657 
Q 3669 2231 3669 1497 
Q 3669 778 3244 343 
Q 2819 -91 2113 -91 
Q 1303 -91 875 529 
Q 447 1150 447 2328 
Q 447 3434 972 4092 
Q 1497 4750 2381 4750 
Q 2619 4750 2861 4703 
Q 3103 4656 3366 4563 
z
" transform="scale(0.015625)"/>
       </defs>
       <use xlink:href="#DejaVuSans-36"/>
       <use xlink:href="#DejaVuSans-30" x="63.623047"/>
       <use xlink:href="#DejaVuSans-30" x="127.246094"/>
       <use xlink:href="#DejaVuSans-30" x="190.869141"/>
      </g>
     </g>
    </g>
    <g id="ytick_5">
     <g id="line2d_5">
      <path d="M 738 123.36 
C 706.451972 123.36 675.210709 129.574274 646.064132 141.647181 
C 616.917555 153.720089 590.432491 171.416843 568.124667 193.724667 
C 545.816843 216.032491 528.120089 242.517555 516.047181 271.664132 
C 503.974274 300.810709 497.76 332.051972 497.76 363.6 
C 497.76 395.148028 503.974274 426.389291 516.047181 455.535868 
C 528.120089 484.682445 545.816843 511.167509 568.124667 533.475333 
C 590.432491 555.783157 616.917555 573.479911 646.064132 585.552819 
C 675.210709 597.625726 706.451972 603.84 738 603.84 
C 769.548028 603.84 800.789291 597.625726 829.935868 585.552819 
C 859.082445 573.479911 885.567509 555.783157 907.875333 533.475333 
C 930.183157 511.167509 947.879911 484.682445 959.952819 455.535868 
C 972.025726 426.389291 978.24 395.148028 978.24 363.6 
C 978.24 332.051972 972.025726 300.810709 959.952819 271.664132 
C 947.879911 242.517555 930.183157 216.032491 907.875333 193.724667 
C 885.567509 171.416843 859.082445 153.720089 829.935868 141.647181 
C 800.789291 129.574274 769.548028 123.36 738 123.36 
" clip-path="url(#p2980cd417f)" style="fill: none; stroke-dasharray: 2.96,1.28; stroke-dashoffset: 0; stroke: #808080; stroke-width: 0.8"/>
     </g>
     <g id="text_5">
      <!-- 8000 -->
      <g transform="translate(646.064132 139.567494) scale(0.1 -0.1)">
       <defs>
        <path id="DejaVuSans-38" d="M 2034 2216 
Q 1584 2216 1326 1975 
Q 1069 1734 1069 1313 
Q 1069 891 1326 650 
Q 1584 409 2034 409 
Q 2484 409 2743 651 
Q 3003 894 3003 1313 
Q 3003 1734 2745 1975 
Q 2488 2216 2034 2216 
z
M 1403 2484 
Q 997 2584 770 2862 
Q 544 3141 544 3541 
Q 544 4100 942 4425 
Q 1341 4750 2034 4750 
Q 2731 4750 3128 4425 
Q 3525 4100 3525 3541 
Q 3525 3141 3298 2862 
Q 3072 2584 2669 2484 
Q 3125 2378 3379 2068 
Q 3634 1759 3634 1313 
Q 3634 634 3220 271 
Q 2806 -91 2034 -91 
Q 1263 -91 848 271 
Q 434 634 434 1313 
Q 434 1759 690 2068 
Q 947 2378 1403 2484 
z
M 1172 3481 
Q 1172 3119 1398 2916 
Q 1625 2713 2034 2713 
Q 2441 2713 2670 2916 
Q 2900 3119 2900 3481 
Q 2900 3844 2670 4047 
Q 2441 4250 2034 4250 
Q 1625 4250 1398 4047 
Q 1172 3844 1172 3481 
z
" transform="scale(0.015625)"/>
       </defs>
       <use xlink:href="#DejaVuSans-38"/>
       <use xlink:href="#DejaVuSans-30" x="63.623047"/>
       <use xlink:href="#DejaVuSans-30" x="127.246094"/>
       <use xlink:href="#DejaVuSans-30" x="190.869141"/>
      </g>
     </g>
    </g>
    <g id="ytick_6">
     <g id="line2d_6">
      <path d="M 738 86.4 
C 701.59843 86.4 665.550818 93.570316 631.920153 107.500594 
C 598.289487 121.430872 567.729798 141.850203 541.99 167.59 
C 516.250203 193.329798 495.830872 223.889487 481.900594 257.520153 
C 467.970316 291.150818 460.8 327.19843 460.8 363.6 
C 460.8 400.00157 467.970316 436.049182 481.900594 469.679847 
C 495.830872 503.310513 516.250203 533.870202 541.99 559.61 
C 567.729798 585.349797 598.289487 605.769128 631.920153 619.699406 
C 665.550818 633.629684 701.59843 640.8 738 640.8 
C 774.40157 640.8 810.449182 633.629684 844.079847 619.699406 
C 877.710513 605.769128 908.270202 585.349797 934.01 559.61 
C 959.749797 533.870202 980.169128 503.310513 994.099406 469.679847 
C 1008.029684 436.049182 1015.2 400.00157 1015.2 363.6 
C 1015.2 327.19843 1008.029684 291.150818 994.099406 257.520153 
C 980.169128 223.889487 959.749797 193.329798 934.01 167.59 
C 908.270202 141.850203 877.710513 121.430872 844.079847 107.500594 
C 810.449182 93.570316 774.40157 86.4 738 86.4 
" clip-path="url(#p2980cd417f)" style="fill: none; stroke-dasharray: 2.96,1.28; stroke-dashoffset: 0; stroke: #808080; stroke-width: 0.8"/>
     </g>
     <g id="text_6">
      <!-- 10000 -->
      <g transform="translate(631.920153 105.420906) scale(0.1 -0.1)">
       <use xlink:href="#DejaVuSans-31"/>
       <use xlink:href="#DejaVuSans-30" x="63.623047"/>
       <use xlink:href="#DejaVuSans-30" x="127.246094"/>
       <use xlink:href="#DejaVuSans-30" x="190.869141"/>
       <use xlink:href="#DejaVuSans-30" x="254.492188"/>
      </g>
     </g>
    </g>
   </g>
   <g id="patch_2">
    <path d="M 730.75038 271.484838 
C 728.3385 271.674657 725.935007 271.95913 723.545455 272.337597 
C 721.155904 272.716065 718.782139 273.188236 716.429648 273.753019 
L 693.508993 178.281618 
C 698.36124 177.116696 703.257368 176.142796 708.186056 175.362168 
C 713.114745 174.581541 718.072191 173.994788 723.046933 173.603268 
z
" clip-path="url(#p2980cd417f)" style="fill: #ef6461; stroke: #ffffff; stroke-width: 2; stroke-linejoin: miter"/>
   </g>
   <g id="patch_3">
    <path d="M 716.429648 273.753019 
C 714.077158 274.317802 711.747756 274.974762 709.44683 275.722378 
C 707.145903 276.469994 704.875227 277.307691 702.640051 278.233531 
L 667.944869 194.471952 
C 672.3732 192.637677 676.871864 190.978033 681.430459 189.496855 
C 685.989054 188.015678 690.604065 186.71411 695.264819 185.595162 
z
" clip-path="url(#p2980cd417f)" style="fill: #ef6461; stroke: #ffffff; stroke-width: 2; stroke-linejoin: miter"/>
   </g>
   <g id="patch_4">
    <path d="M 702.640051 278.233531 
C 700.404875 279.159371 698.206923 280.172641 696.051278 281.270997 
C 693.895633 282.369353 691.783957 283.551949 689.721133 284.816049 
L 662.433917 240.28736 
C 665.662649 238.30879 668.967844 236.457792 672.34186 234.738645 
C 675.715876 233.019498 679.15611 231.433528 682.654608 229.984403 
z
" clip-path="url(#p2980cd417f)" style="fill: #ef6461; stroke: #ffffff; stroke-width: 2; stroke-linejoin: miter"/>
   </g>
   <g id="patch_5">
    <path d="M 689.721133 284.816049 
C 687.658309 286.080149 685.645928 287.424779 683.688643 288.84683 
C 681.731358 290.26888 679.830679 291.767255 677.991 293.338489 
L 660.780419 273.187487 
C 663.147717 271.165624 665.593511 269.237515 668.112145 267.40762 
C 670.63078 265.577726 673.220311 263.847456 675.874753 262.220812 
z
" clip-path="url(#p2980cd417f)" style="fill: #ef6461; stroke: #ffffff; stroke-width: 2; stroke-linejoin: miter"/>
   </g>
   <g id="patch_6">
    <path d="M 677.991 293.338489 
C 676.151322 294.909723 674.374063 296.552604 672.663333 298.263333 
C 670.952604 299.974063 669.309723 301.751322 667.738489 303.591 
L 651.99991 290.148984 
C 653.9231 287.897218 655.933987 285.721853 658.02792 283.62792 
C 660.121853 281.533987 662.297218 279.5231 664.548984 277.59991 
z
" clip-path="url(#p2980cd417f)" style="fill: #ef6461; stroke: #ffffff; stroke-width: 2; stroke-linejoin: miter"/>
   </g>
   <g id="patch_7">
    <path d="M 667.738489 303.591 
C 666.167255 305.430679 664.66888 307.331358 663.24683 309.288643 
C 661.824779 311.245928 660.480149 313.258309 659.216049 315.321133 
L 645.696723 307.036479 
C 647.177743 304.619674 648.753111 302.261969 650.419186 299.968814 
C 652.08526 297.675659 653.840756 295.448823 655.681613 293.293456 
z
" clip-path="url(#p2980cd417f)" style="fill: #ef6461; stroke: #ffffff; stroke-width: 2; stroke-linejoin: miter"/>
   </g>
   <g id="patch_8">
    <path d="M 652.633531 328.240051 
C 651.707691 330.475227 650.869994 332.745903 650.122378 335.04683 
C 649.374762 337.347756 648.717802 339.677158 648.153019 342.029648 
L 504.200187 307.469631 
C 505.669865 301.34798 507.379405 295.286411 509.324852 289.29894 
C 511.270299 283.31147 513.450153 277.402716 515.859375 271.58634 
z
" clip-path="url(#p2980cd417f)" style="fill: #61a0af; stroke: #ffffff; stroke-width: 2; stroke-linejoin: miter"/>
   </g>
   <g id="patch_9">
    <path d="M 648.153019 342.029648 
C 647.588236 344.382139 647.116065 346.755904 646.737597 349.145455 
C 646.35913 351.535007 646.074657 353.9385 645.884838 356.35038 
L 553.824946 349.105109 
C 554.20447 344.282798 554.773244 339.477252 555.529952 334.699584 
C 556.28666 329.921915 557.23072 325.175809 558.359947 320.472239 
z
" clip-path="url(#p2980cd417f)" style="fill: #61a0af; stroke: #ffffff; stroke-width: 2; stroke-linejoin: miter"/>
   </g>
   <g id="patch_10">
    <path d="M 645.884838 356.35038 
C 645.695019 358.762259 645.6 361.180663 645.6 363.6 
C 645.6 366.019337 645.695019 368.437741 645.884838 370.84962 
L 580.667304 375.982352 
C 580.343093 371.862862 580.1808 367.732228 580.1808 363.6 
C 580.1808 359.467772 580.343093 355.337138 580.667304 351.217648 
z
" clip-path="url(#p2980cd417f)" style="fill: #61a0af; stroke: #ffffff; stroke-width: 2; stroke-linejoin: miter"/>
   </g>
   <g id="patch_11">
    <path d="M 645.884838 370.84962 
C 646.074657 373.2615 646.35913 375.664993 646.737597 378.054545 
C 647.116065 380.444096 647.588236 382.817861 648.153019 385.170352 
L 606.248388 395.230764 
C 605.42019 391.781071 604.727798 388.300182 604.172813 384.796144 
C 603.617828 381.292106 603.200678 377.767623 602.922327 374.230843 
z
" clip-path="url(#p2980cd417f)" style="fill: #61a0af; stroke: #ffffff; stroke-width: 2; stroke-linejoin: miter"/>
   </g>
   <g id="patch_12">
    <path d="M 648.153019 385.170352 
C 648.717802 387.522842 649.374762 389.852244 650.122378 392.15317 
C 650.869994 394.454097 651.707691 396.724773 652.633531 398.959949 
L 623.318686 411.102556 
C 622.074912 408.09982 620.94955 405.049393 619.945202 401.958329 
C 618.940855 398.867264 618.058296 395.737946 617.299566 392.57761 
z
" clip-path="url(#p2980cd417f)" style="fill: #61a0af; stroke: #ffffff; stroke-width: 2; stroke-linejoin: miter"/>
   </g>
   <g id="patch_13">
    <path d="M 652.633531 398.959949 
C 653.559371 401.195125 654.572641 403.393077 655.670997 405.548722 
C 656.769353 407.704367 657.951949 409.816043 659.216049 411.878867 
L 632.870696 428.023321 
C 631.18388 425.270688 629.605825 422.452868 628.140179 419.576375 
C 626.674532 416.699882 625.322425 413.766935 624.086984 410.784316 
z
" clip-path="url(#p2980cd417f)" style="fill: #61a0af; stroke: #ffffff; stroke-width: 2; stroke-linejoin: miter"/>
   </g>
   <g id="patch_14">
    <path d="M 659.216049 411.878867 
C 660.480149 413.941691 661.824779 415.954072 663.24683 417.911357 
C 664.66888 419.868642 666.167255 421.769321 667.738489 423.609 
L 644.973759 443.051916 
C 642.893446 440.616181 640.909598 438.099682 639.026803 435.508237 
C 637.144007 432.916792 635.363717 430.252399 633.690049 427.52122 
z
" clip-path="url(#p2980cd417f)" style="fill: #61a0af; stroke: #ffffff; stroke-width: 2; stroke-linejoin: miter"/>
   </g>
   <g id="patch_15">
    <path d="M 667.738489 423.609 
C 669.309723 425.448678 670.952604 427.225937 672.663333 428.936667 
C 674.374063 430.647396 676.151322 432.290277 677.991 433.861511 
L 663.58884 450.724274 
C 661.307639 448.775944 659.103838 446.738771 656.982533 444.617467 
C 654.861229 442.496162 652.824056 440.292361 650.875726 438.01116 
z
" clip-path="url(#p2980cd417f)" style="fill: #61a0af; stroke: #ffffff; stroke-width: 2; stroke-linejoin: miter"/>
   </g>
   <g id="patch_16">
    <path d="M 689.721133 442.383951 
C 691.783957 443.648051 693.895633 444.830647 696.051278 445.929003 
C 698.206923 447.027359 700.404875 448.040629 702.640051 448.966469 
L 675.823065 513.708399 
C 671.892732 512.080401 668.027853 510.298668 664.237367 508.367319 
C 660.44688 506.435969 656.733709 504.356494 653.10644 502.1337 
z
" clip-path="url(#p2980cd417f)" style="fill: #074f57; stroke: #ffffff; stroke-width: 2; stroke-linejoin: miter"/>
   </g>
   <g id="patch_17">
    <path d="M 702.640051 448.966469 
C 704.875227 449.892309 707.145903 450.730006 709.44683 451.477622 
C 711.747756 452.225238 714.077158 452.882198 716.429648 453.446981 
L 701.218236 516.807071 
C 697.206769 515.844003 693.234674 514.723757 689.311134 513.448921 
C 685.387594 512.174086 681.515637 510.745645 677.704215 509.166903 
z
" clip-path="url(#p2980cd417f)" style="fill: #074f57; stroke: #ffffff; stroke-width: 2; stroke-linejoin: miter"/>
   </g>
   <g id="patch_18">
    <path d="M 716.429648 453.446981 
C 718.782139 454.011764 721.155904 454.483935 723.545455 454.862403 
C 725.935007 455.24087 728.3385 455.525343 730.75038 455.715162 
L 728.460949 484.80513 
C 725.287399 484.555366 722.124882 484.181057 718.98071 483.683069 
C 715.836539 483.185082 712.713139 482.563799 709.617731 481.820657 
z
" clip-path="url(#p2980cd417f)" style="fill: #074f57; stroke: #ffffff; stroke-width: 2; stroke-linejoin: miter"/>
   </g>
   <g id="patch_19">
    <path d="M 730.75038 455.715162 
C 733.162259 455.904981 735.580663 456 738 456 
C 740.419337 456 742.837741 455.904981 745.24962 455.715162 
L 747.051876 478.614991 
C 744.040404 478.851999 741.020784 478.97064 738 478.97064 
C 734.979216 478.97064 731.959596 478.851999 728.948124 478.614991 
z
" clip-path="url(#p2980cd417f)" style="fill: #074f57; stroke: #ffffff; stroke-width: 2; stroke-linejoin: miter"/>
   </g>
   <g id="patch_20">
    <path d="M 745.24962 455.715162 
C 747.6615 455.525343 750.064993 455.24087 752.454545 454.862403 
C 754.844096 454.483935 757.217861 454.011764 759.570352 453.446981 
L 762.905128 467.337324 
C 760.188942 467.989422 757.448193 468.534591 754.689217 468.97157 
C 751.930241 469.408549 749.155167 469.737001 746.370412 469.956166 
z
" clip-path="url(#p2980cd417f)" style="fill: #074f57; stroke: #ffffff; stroke-width: 2; stroke-linejoin: miter"/>
   </g>
   <g id="patch_21">
    <path d="M 759.570352 453.446981 
C 761.922842 452.882198 764.252244 452.225238 766.55317 451.477622 
C 768.854097 450.730006 771.124773 449.892309 773.359949 448.966469 
L 777.765799 459.603131 
C 775.25212 460.644331 772.698517 461.586405 770.110895 462.427174 
C 767.523273 463.267943 764.903628 464.006759 762.258017 464.641914 
z
" clip-path="url(#p2980cd417f)" style="fill: #074f57; stroke: #ffffff; stroke-width: 2; stroke-linejoin: miter"/>
   </g>
   <g id="patch_22">
    <path d="M 773.359949 448.966469 
C 775.595125 448.040629 777.793077 447.027359 779.948722 445.929003 
C 782.104367 444.830647 784.216043 443.648051 786.278867 442.383951 
L 791.270902 450.530212 
C 788.994782 451.92502 786.664759 453.229896 784.28622 454.441822 
C 781.907681 455.653748 779.482461 456.77179 777.016168 457.793362 
z
" clip-path="url(#p2980cd417f)" style="fill: #074f57; stroke: #ffffff; stroke-width: 2; stroke-linejoin: miter"/>
   </g>
   <g id="patch_23">
    <path d="M 786.278867 442.383951 
C 788.341691 441.119851 790.354072 439.775221 792.311357 438.35317 
C 794.268642 436.93112 796.169321 435.432745 798.009 433.861511 
L 803.40981 440.185047 
C 801.40456 441.897692 799.33282 443.53092 797.199379 445.080956 
C 795.065939 446.630991 792.872444 448.096638 790.623965 449.474507 
z
" clip-path="url(#p2980cd417f)" style="fill: #074f57; stroke: #ffffff; stroke-width: 2; stroke-linejoin: miter"/>
   </g>
   <g id="patch_24">
    <path d="M 808.261511 423.609 
C 809.832745 421.769321 811.33112 419.868642 812.75317 417.911357 
C 814.175221 415.954072 815.519851 413.941691 816.783951 411.878867 
L 874.37502 447.170719 
C 872.186862 450.741468 869.859308 454.224899 867.397738 457.61296 
C 864.936168 461.00102 862.342482 464.291095 859.622676 467.475578 
z
" clip-path="url(#p2980cd417f)" style="fill: #f6d8ae; stroke: #ffffff; stroke-width: 2; stroke-linejoin: miter"/>
   </g>
   <g id="patch_25">
    <path d="M 816.783951 411.878867 
C 818.048051 409.816043 819.230647 407.704367 820.329003 405.548722 
C 821.427359 403.393077 822.440629 401.195125 823.366469 398.959949 
L 852.766681 411.137916 
C 851.521981 414.142886 850.159741 417.097813 848.683111 419.995862 
C 847.206481 422.893912 845.6166 425.732849 843.917144 428.506109 
z
" clip-path="url(#p2980cd417f)" style="fill: #f6d8ae; stroke: #ffffff; stroke-width: 2; stroke-linejoin: miter"/>
   </g>
   <g id="patch_26">
    <path d="M 823.366469 398.959949 
C 824.292309 396.724773 825.130006 394.454097 825.877622 392.15317 
C 826.625238 389.852244 827.282198 387.522842 827.846981 385.170352 
L 857.047249 392.180716 
C 856.298912 395.297766 855.428441 398.384223 854.437849 401.432951 
C 853.447258 404.481678 852.33731 407.490324 851.110571 410.451933 
z
" clip-path="url(#p2980cd417f)" style="fill: #f6d8ae; stroke: #ffffff; stroke-width: 2; stroke-linejoin: miter"/>
   </g>
   <g id="patch_27">
    <path d="M 827.846981 385.170352 
C 828.411764 382.817861 828.883935 380.444096 829.262403 378.054545 
C 829.64087 375.664993 829.925343 373.2615 830.115162 370.84962 
L 843.269207 371.884866 
C 843.052282 374.641162 842.727187 377.387875 842.294674 380.118654 
C 841.862161 382.849433 841.322564 385.562171 840.677129 388.250598 
z
" clip-path="url(#p2980cd417f)" style="fill: #f6d8ae; stroke: #ffffff; stroke-width: 2; stroke-linejoin: miter"/>
   </g>
   <g id="patch_28">
    <path d="M 830.115162 370.84962 
C 830.304981 368.437741 830.4 366.019337 830.4 363.6 
C 830.4 361.180663 830.304981 358.762259 830.115162 356.35038 
L 838.166027 355.716763 
C 838.372436 358.33944 838.47576 360.969213 838.47576 363.6 
C 838.47576 366.230787 838.372436 368.86056 838.166027 371.483237 
z
" clip-path="url(#p2980cd417f)" style="fill: #f6d8ae; stroke: #ffffff; stroke-width: 2; stroke-linejoin: miter"/>
   </g>
   <g id="patch_29">
    <path d="M 830.115162 356.35038 
C 829.925343 353.9385 829.64087 351.535007 829.262403 349.145455 
C 828.883935 346.755904 828.411764 344.382139 827.846981 342.029648 
L 835.376158 340.222053 
C 835.988269 342.771682 836.500009 345.344369 836.910192 347.934165 
C 837.320375 350.52396 837.628686 353.128867 837.834412 355.742861 
z
" clip-path="url(#p2980cd417f)" style="fill: #f6d8ae; stroke: #ffffff; stroke-width: 2; stroke-linejoin: miter"/>
   </g>
   <g id="patch_30">
    <path d="M 827.846981 342.029648 
C 827.282198 339.677158 826.625238 337.347756 825.877622 335.04683 
C 825.130006 332.745903 824.292309 330.475227 823.366469 328.240051 
L 827.037227 326.719573 
C 828.002878 329.050862 828.876596 331.419177 829.65636 333.819043 
C 830.436124 336.21891 831.121332 338.648475 831.710401 341.102123 
z
" clip-path="url(#p2980cd417f)" style="fill: #f6d8ae; stroke: #ffffff; stroke-width: 2; stroke-linejoin: miter"/>
   </g>
   <g id="patch_31">
    <path d="M 823.366469 328.240051 
C 822.440629 326.004875 821.427359 323.806923 820.329003 321.651278 
C 819.230647 319.495633 818.048051 317.383957 816.783951 315.321133 
L 819.98258 313.361011 
C 821.298002 315.507585 822.528611 317.704995 823.67156 319.94816 
C 824.81451 322.191324 825.868918 324.478513 826.832347 326.804437 
z
" clip-path="url(#p2980cd417f)" style="fill: #f6d8ae; stroke: #ffffff; stroke-width: 2; stroke-linejoin: miter"/>
   </g>
   <g id="patch_32">
    <path d="M 808.261511 303.591 
C 806.690277 301.751322 805.047396 299.974063 803.336667 298.263333 
C 801.625937 296.552604 799.848678 294.909723 798.009 293.338489 
L 804.321946 285.946978 
C 806.355159 287.683505 808.319385 289.499218 810.210084 291.389916 
C 812.100782 293.280615 813.916495 295.244841 815.653022 297.278054 
z
" clip-path="url(#p2980cd417f)" style="fill: #ff9f1c; stroke: #ffffff; stroke-width: 2; stroke-linejoin: miter"/>
   </g>
   <g id="patch_33">
    <path d="M 798.009 293.338489 
C 796.169321 291.767255 794.268642 290.26888 792.311357 288.84683 
C 790.354072 287.424779 788.341691 286.080149 786.278867 284.816049 
L 790.93295 277.221276 
C 793.19463 278.607235 795.401005 280.081488 797.546972 281.640624 
C 799.692939 283.199761 801.776844 284.842578 803.793867 286.565279 
z
" clip-path="url(#p2980cd417f)" style="fill: #ff9f1c; stroke: #ffffff; stroke-width: 2; stroke-linejoin: miter"/>
   </g>
   <g id="patch_34">
    <path d="M 786.278867 284.816049 
C 784.216043 283.551949 782.104367 282.369353 779.948722 281.270997 
C 777.793077 280.172641 775.595125 279.159371 773.359949 278.233531 
L 775.410826 273.282276 
C 777.775643 274.261815 780.101075 275.333854 782.381748 276.495915 
C 784.662421 277.657976 786.896574 278.909162 789.079042 280.24658 
z
" clip-path="url(#p2980cd417f)" style="fill: #ff9f1c; stroke: #ffffff; stroke-width: 2; stroke-linejoin: miter"/>
   </g>
   <g id="patch_35">
    <path d="M 773.359949 278.233531 
C 771.124773 277.307691 768.854097 276.469994 766.55317 275.722378 
C 764.252244 274.974762 761.922842 274.317802 759.570352 273.753019 
L 760.769663 268.757527 
C 763.252952 269.353712 765.711869 270.047198 768.140727 270.836382 
C 770.569584 271.625566 772.96651 272.509839 775.325962 273.487156 
z
" clip-path="url(#p2980cd417f)" style="fill: #ff9f1c; stroke: #ffffff; stroke-width: 2; stroke-linejoin: miter"/>
   </g>
   <g id="patch_36">
    <path d="M 759.570352 273.753019 
C 757.217861 273.188236 754.844096 272.716065 752.454545 272.337597 
C 750.064993 271.95913 747.6615 271.674657 745.24962 271.484838 
L 745.496108 268.352923 
C 747.989991 268.549196 750.475203 268.84334 752.945999 269.234676 
C 755.416795 269.626011 757.871268 270.114236 760.303744 270.698222 
z
" clip-path="url(#p2980cd417f)" style="fill: #ff9f1c; stroke: #ffffff; stroke-width: 2; stroke-linejoin: miter"/>
   </g>
   <g id="line2d_7">
    <path d="M 738 271.2 
L 738 271.2 
L 738 271.2 
L 738 271.2 
L 738 271.2 
L 738 271.2 
L 738 271.2 
L 738 271.2 
L 738 271.2 
L 738 271.2 
L 738 271.2 
L 738 271.2 
L 738 271.2 
L 738 271.2 
L 738 271.2 
L 738 271.2 
L 738 271.2 
L 738 271.2 
L 738 271.2 
L 738 271.2 
L 738 271.2 
L 738 271.2 
L 738 271.2 
L 738 271.2 
L 738 271.2 
L 738 271.2 
L 738 271.2 
L 738 271.2 
L 738 271.2 
L 738 271.2 
L 738 271.2 
L 738 271.2 
L 738 271.2 
L 738 271.2 
L 738 271.2 
" clip-path="url(#p2980cd417f)" style="fill: none; stroke: #bebebe; stroke-width: 0.8; stroke-linecap: square"/>
   </g>
   <g id="line2d_8">
    <path d="M 738 225 
L 738 225 
L 738 225 
L 738 225 
L 738 225 
L 738 225 
L 738 225 
L 738 225 
L 738 225 
L 738 225 
L 738 225 
L 738 225 
L 738 225 
L 738 225 
L 738 225 
L 738 225 
L 738 225 
L 738 225 
L 738 225 
L 738 225 
L 738 225 
L 738 225 
L 738 225 
L 738 225 
L 738 225 
L 738 225 
L 738 225 
L 738 225 
L 738 225 
L 738 225 
L 738 225 
L 738 225 
L 738 225 
L 738 225 
L 738 225 
" clip-path="url(#p2980cd417f)" style="fill: none; stroke: #bebebe; stroke-width: 0.8; stroke-linecap: square"/>
   </g>
   <g id="line2d_9">
    <path d="M 738 178.8 
L 738 178.8 
L 738 178.8 
L 738 178.8 
L 738 178.8 
L 738 178.8 
L 738 178.8 
L 738 178.8 
L 738 178.8 
L 738 178.8 
L 738 178.8 
L 738 178.8 
L 738 178.8 
L 738 178.8 
L 738 178.8 
L 738 178.8 
L 738 178.8 
L 738 178.8 
L 738 178.8 
L 738 178.8 
L 738 178.8 
L 738 178.8 
L 738 178.8 
L 738 178.8 
L 738 178.8 
L 738 178.8 
L 738 178.8 
L 738 178.8 
L 738 178.8 
L 738 178.8 
L 738 178.8 
L 738 178.8 
L 738 178.8 
L 738 178.8 
L 738 178.8 
" clip-path="url(#p2980cd417f)" style="fill: none; stroke: #bebebe; stroke-width: 0.8; stroke-linecap: square"/>
   </g>
   <g id="line2d_10">
    <path d="M 738 132.6 
L 738 132.6 
L 738 132.6 
L 738 132.6 
L 738 132.6 
L 738 132.6 
L 738 132.6 
L 738 132.6 
L 738 132.6 
L 738 132.6 
L 738 132.6 
L 738 132.6 
L 738 132.6 
L 738 132.6 
L 738 132.6 
L 738 132.6 
L 738 132.6 
L 738 132.6 
L 738 132.6 
L 738 132.6 
L 738 132.6 
L 738 132.6 
L 738 132.6 
L 738 132.6 
L 738 132.6 
L 738 132.6 
L 738 132.6 
L 738 132.6 
L 738 132.6 
L 738 132.6 
L 738 132.6 
L 738 132.6 
L 738 132.6 
L 738 132.6 
L 738 132.6 
" clip-path="url(#p2980cd417f)" style="fill: none; stroke: #bebebe; stroke-width: 0.8; stroke-linecap: square"/>
   </g>
   <g id="line2d_11">
    <path d="M 655.670997 321.651278 
L 655.670997 321.651278 
L 655.670997 321.651278 
L 655.670997 321.651278 
L 655.670997 321.651278 
L 655.670997 321.651278 
L 655.670997 321.651278 
L 655.670997 321.651278 
L 655.670997 321.651278 
L 655.670997 321.651278 
L 655.670997 321.651278 
L 655.670997 321.651278 
L 655.670997 321.651278 
L 655.670997 321.651278 
L 655.670997 321.651278 
L 655.670997 321.651278 
L 655.670997 321.651278 
L 655.670997 321.651278 
L 655.670997 321.651278 
L 655.670997 321.651278 
L 655.670997 321.651278 
L 655.670997 321.651278 
L 655.670997 321.651278 
L 655.670997 321.651278 
L 655.670997 321.651278 
L 655.670997 321.651278 
L 655.670997 321.651278 
L 655.670997 321.651278 
L 655.670997 321.651278 
L 655.670997 321.651278 
L 655.670997 321.651278 
L 655.670997 321.651278 
L 655.670997 321.651278 
L 655.670997 321.651278 
L 655.670997 321.651278 
" clip-path="url(#p2980cd417f)" style="fill: none; stroke: #bebebe; stroke-width: 0.8; stroke-linecap: square"/>
   </g>
   <g id="line2d_12">
    <path d="M 614.506496 300.676917 
L 614.506496 300.676917 
L 614.506496 300.676917 
L 614.506496 300.676917 
L 614.506496 300.676917 
L 614.506496 300.676917 
L 614.506496 300.676917 
L 614.506496 300.676917 
L 614.506496 300.676917 
L 614.506496 300.676917 
L 614.506496 300.676917 
L 614.506496 300.676917 
L 614.506496 300.676917 
L 614.506496 300.676917 
L 614.506496 300.676917 
L 614.506496 300.676917 
L 614.506496 300.676917 
L 614.506496 300.676917 
L 614.506496 300.676917 
L 614.506496 300.676917 
L 614.506496 300.676917 
L 614.506496 300.676917 
L 614.506496 300.676917 
L 614.506496 300.676917 
L 614.506496 300.676917 
L 614.506496 300.676917 
L 614.506496 300.676917 
L 614.506496 300.676917 
L 614.506496 300.676917 
L 614.506496 300.676917 
L 614.506496 300.676917 
L 614.506496 300.676917 
L 614.506496 300.676917 
L 614.506496 300.676917 
L 614.506496 300.676917 
" clip-path="url(#p2980cd417f)" style="fill: none; stroke: #bebebe; stroke-width: 0.8; stroke-linecap: square"/>
   </g>
   <g id="line2d_13">
    <path d="M 573.341994 279.702556 
L 573.341994 279.702556 
L 573.341994 279.702556 
L 573.341994 279.702556 
L 573.341994 279.702556 
L 573.341994 279.702556 
L 573.341994 279.702556 
L 573.341994 279.702556 
L 573.341994 279.702556 
L 573.341994 279.702556 
L 573.341994 279.702556 
L 573.341994 279.702556 
L 573.341994 279.702556 
L 573.341994 279.702556 
L 573.341994 279.702556 
L 573.341994 279.702556 
L 573.341994 279.702556 
L 573.341994 279.702556 
L 573.341994 279.702556 
L 573.341994 279.702556 
L 573.341994 279.702556 
L 573.341994 279.702556 
L 573.341994 279.702556 
L 573.341994 279.702556 
L 573.341994 279.702556 
L 573.341994 279.702556 
L 573.341994 279.702556 
L 573.341994 279.702556 
L 573.341994 279.702556 
L 573.341994 279.702556 
L 573.341994 279.702556 
L 573.341994 279.702556 
L 573.341994 279.702556 
L 573.341994 279.702556 
L 573.341994 279.702556 
" clip-path="url(#p2980cd417f)" style="fill: none; stroke: #bebebe; stroke-width: 0.8; stroke-linecap: square"/>
   </g>
   <g id="line2d_14">
    <path d="M 532.177493 258.728195 
L 532.177493 258.728195 
L 532.177493 258.728195 
L 532.177493 258.728195 
L 532.177493 258.728195 
L 532.177493 258.728195 
L 532.177493 258.728195 
L 532.177493 258.728195 
L 532.177493 258.728195 
L 532.177493 258.728195 
L 532.177493 258.728195 
L 532.177493 258.728195 
L 532.177493 258.728195 
L 532.177493 258.728195 
L 532.177493 258.728195 
L 532.177493 258.728195 
L 532.177493 258.728195 
L 532.177493 258.728195 
L 532.177493 258.728195 
L 532.177493 258.728195 
L 532.177493 258.728195 
L 532.177493 258.728195 
L 532.177493 258.728195 
L 532.177493 258.728195 
L 532.177493 258.728195 
L 532.177493 258.728195 
L 532.177493 258.728195 
L 532.177493 258.728195 
L 532.177493 258.728195 
L 532.177493 258.728195 
L 532.177493 258.728195 
L 532.177493 258.728195 
L 532.177493 258.728195 
L 532.177493 258.728195 
L 532.177493 258.728195 
" clip-path="url(#p2980cd417f)" style="fill: none; stroke: #bebebe; stroke-width: 0.8; stroke-linecap: square"/>
   </g>
   <g id="line2d_15">
    <path d="M 683.688643 438.35317 
L 683.688643 438.35317 
L 683.688643 438.35317 
L 683.688643 438.35317 
L 683.688643 438.35317 
L 683.688643 438.35317 
L 683.688643 438.35317 
L 683.688643 438.35317 
L 683.688643 438.35317 
L 683.688643 438.35317 
L 683.688643 438.35317 
L 683.688643 438.35317 
L 683.688643 438.35317 
L 683.688643 438.35317 
L 683.688643 438.35317 
L 683.688643 438.35317 
L 683.688643 438.35317 
L 683.688643 438.35317 
L 683.688643 438.35317 
L 683.688643 438.35317 
L 683.688643 438.35317 
L 683.688643 438.35317 
L 683.688643 438.35317 
L 683.688643 438.35317 
L 683.688643 438.35317 
L 683.688643 438.35317 
L 683.688643 438.35317 
L 683.688643 438.35317 
L 683.688643 438.35317 
L 683.688643 438.35317 
L 683.688643 438.35317 
L 683.688643 438.35317 
L 683.688643 438.35317 
L 683.688643 438.35317 
L 683.688643 438.35317 
" clip-path="url(#p2980cd417f)" style="fill: none; stroke: #bebebe; stroke-width: 0.8; stroke-linecap: square"/>
   </g>
   <g id="line2d_16">
    <path d="M 656.532964 475.729755 
L 656.532964 475.729755 
L 656.532964 475.729755 
L 656.532964 475.729755 
L 656.532964 475.729755 
L 656.532964 475.729755 
L 656.532964 475.729755 
L 656.532964 475.729755 
L 656.532964 475.729755 
L 656.532964 475.729755 
L 656.532964 475.729755 
L 656.532964 475.729755 
L 656.532964 475.729755 
L 656.532964 475.729755 
L 656.532964 475.729755 
L 656.532964 475.729755 
L 656.532964 475.729755 
L 656.532964 475.729755 
L 656.532964 475.729755 
L 656.532964 475.729755 
L 656.532964 475.729755 
L 656.532964 475.729755 
L 656.532964 475.729755 
L 656.532964 475.729755 
L 656.532964 475.729755 
L 656.532964 475.729755 
L 656.532964 475.729755 
L 656.532964 475.729755 
L 656.532964 475.729755 
L 656.532964 475.729755 
L 656.532964 475.729755 
L 656.532964 475.729755 
L 656.532964 475.729755 
L 656.532964 475.729755 
L 656.532964 475.729755 
" clip-path="url(#p2980cd417f)" style="fill: none; stroke: #bebebe; stroke-width: 0.8; stroke-linecap: square"/>
   </g>
   <g id="line2d_17">
    <path d="M 629.377285 513.106341 
L 629.377285 513.106341 
L 629.377285 513.106341 
L 629.377285 513.106341 
L 629.377285 513.106341 
L 629.377285 513.106341 
L 629.377285 513.106341 
L 629.377285 513.106341 
L 629.377285 513.106341 
L 629.377285 513.106341 
L 629.377285 513.106341 
L 629.377285 513.106341 
L 629.377285 513.106341 
L 629.377285 513.106341 
L 629.377285 513.106341 
L 629.377285 513.106341 
L 629.377285 513.106341 
L 629.377285 513.106341 
L 629.377285 513.106341 
L 629.377285 513.106341 
L 629.377285 513.106341 
L 629.377285 513.106341 
L 629.377285 513.106341 
L 629.377285 513.106341 
L 629.377285 513.106341 
L 629.377285 513.106341 
L 629.377285 513.106341 
L 629.377285 513.106341 
L 629.377285 513.106341 
L 629.377285 513.106341 
L 629.377285 513.106341 
L 629.377285 513.106341 
L 629.377285 513.106341 
L 629.377285 513.106341 
L 629.377285 513.106341 
" clip-path="url(#p2980cd417f)" style="fill: none; stroke: #bebebe; stroke-width: 0.8; stroke-linecap: square"/>
   </g>
   <g id="line2d_18">
    <path d="M 602.221607 550.482926 
L 602.221607 550.482926 
L 602.221607 550.482926 
L 602.221607 550.482926 
L 602.221607 550.482926 
L 602.221607 550.482926 
L 602.221607 550.482926 
L 602.221607 550.482926 
L 602.221607 550.482926 
L 602.221607 550.482926 
L 602.221607 550.482926 
L 602.221607 550.482926 
L 602.221607 550.482926 
L 602.221607 550.482926 
L 602.221607 550.482926 
L 602.221607 550.482926 
L 602.221607 550.482926 
L 602.221607 550.482926 
L 602.221607 550.482926 
L 602.221607 550.482926 
L 602.221607 550.482926 
L 602.221607 550.482926 
L 602.221607 550.482926 
L 602.221607 550.482926 
L 602.221607 550.482926 
L 602.221607 550.482926 
L 602.221607 550.482926 
L 602.221607 550.482926 
L 602.221607 550.482926 
L 602.221607 550.482926 
L 602.221607 550.482926 
L 602.221607 550.482926 
L 602.221607 550.482926 
L 602.221607 550.482926 
L 602.221607 550.482926 
" clip-path="url(#p2980cd417f)" style="fill: none; stroke: #bebebe; stroke-width: 0.8; stroke-linecap: square"/>
   </g>
   <g id="line2d_19">
    <path d="M 803.336667 428.936667 
L 803.336667 428.936667 
L 803.336667 428.936667 
L 803.336667 428.936667 
L 803.336667 428.936667 
L 803.336667 428.936667 
L 803.336667 428.936667 
L 803.336667 428.936667 
L 803.336667 428.936667 
L 803.336667 428.936667 
L 803.336667 428.936667 
L 803.336667 428.936667 
L 803.336667 428.936667 
L 803.336667 428.936667 
L 803.336667 428.936667 
L 803.336667 428.936667 
L 803.336667 428.936667 
L 803.336667 428.936667 
L 803.336667 428.936667 
L 803.336667 428.936667 
L 803.336667 428.936667 
L 803.336667 428.936667 
L 803.336667 428.936667 
L 803.336667 428.936667 
L 803.336667 428.936667 
L 803.336667 428.936667 
L 803.336667 428.936667 
L 803.336667 428.936667 
L 803.336667 428.936667 
L 803.336667 428.936667 
L 803.336667 428.936667 
L 803.336667 428.936667 
L 803.336667 428.936667 
L 803.336667 428.936667 
L 803.336667 428.936667 
" clip-path="url(#p2980cd417f)" style="fill: none; stroke: #bebebe; stroke-width: 0.8; stroke-linecap: square"/>
   </g>
   <g id="line2d_20">
    <path d="M 836.005 461.605 
L 836.005 461.605 
L 836.005 461.605 
L 836.005 461.605 
L 836.005 461.605 
L 836.005 461.605 
L 836.005 461.605 
L 836.005 461.605 
L 836.005 461.605 
L 836.005 461.605 
L 836.005 461.605 
L 836.005 461.605 
L 836.005 461.605 
L 836.005 461.605 
L 836.005 461.605 
L 836.005 461.605 
L 836.005 461.605 
L 836.005 461.605 
L 836.005 461.605 
L 836.005 461.605 
L 836.005 461.605 
L 836.005 461.605 
L 836.005 461.605 
L 836.005 461.605 
L 836.005 461.605 
L 836.005 461.605 
L 836.005 461.605 
L 836.005 461.605 
L 836.005 461.605 
L 836.005 461.605 
L 836.005 461.605 
L 836.005 461.605 
L 836.005 461.605 
L 836.005 461.605 
L 836.005 461.605 
" clip-path="url(#p2980cd417f)" style="fill: none; stroke: #bebebe; stroke-width: 0.8; stroke-linecap: square"/>
   </g>
   <g id="line2d_21">
    <path d="M 868.673333 494.273333 
L 868.673333 494.273333 
L 868.673333 494.273333 
L 868.673333 494.273333 
L 868.673333 494.273333 
L 868.673333 494.273333 
L 868.673333 494.273333 
L 868.673333 494.273333 
L 868.673333 494.273333 
L 868.673333 494.273333 
L 868.673333 494.273333 
L 868.673333 494.273333 
L 868.673333 494.273333 
L 868.673333 494.273333 
L 868.673333 494.273333 
L 868.673333 494.273333 
L 868.673333 494.273333 
L 868.673333 494.273333 
L 868.673333 494.273333 
L 868.673333 494.273333 
L 868.673333 494.273333 
L 868.673333 494.273333 
L 868.673333 494.273333 
L 868.673333 494.273333 
L 868.673333 494.273333 
L 868.673333 494.273333 
L 868.673333 494.273333 
L 868.673333 494.273333 
L 868.673333 494.273333 
L 868.673333 494.273333 
L 868.673333 494.273333 
L 868.673333 494.273333 
L 868.673333 494.273333 
L 868.673333 494.273333 
L 868.673333 494.273333 
" clip-path="url(#p2980cd417f)" style="fill: none; stroke: #bebebe; stroke-width: 0.8; stroke-linecap: square"/>
   </g>
   <g id="line2d_22">
    <path d="M 901.341666 526.941666 
L 901.341666 526.941666 
L 901.341666 526.941666 
L 901.341666 526.941666 
L 901.341666 526.941666 
L 901.341666 526.941666 
L 901.341666 526.941666 
L 901.341666 526.941666 
L 901.341666 526.941666 
L 901.341666 526.941666 
L 901.341666 526.941666 
L 901.341666 526.941666 
L 901.341666 526.941666 
L 901.341666 526.941666 
L 901.341666 526.941666 
L 901.341666 526.941666 
L 901.341666 526.941666 
L 901.341666 526.941666 
L 901.341666 526.941666 
L 901.341666 526.941666 
L 901.341666 526.941666 
L 901.341666 526.941666 
L 901.341666 526.941666 
L 901.341666 526.941666 
L 901.341666 526.941666 
L 901.341666 526.941666 
L 901.341666 526.941666 
L 901.341666 526.941666 
L 901.341666 526.941666 
L 901.341666 526.941666 
L 901.341666 526.941666 
L 901.341666 526.941666 
L 901.341666 526.941666 
L 901.341666 526.941666 
L 901.341666 526.941666 
" clip-path="url(#p2980cd417f)" style="fill: none; stroke: #bebebe; stroke-width: 0.8; stroke-linecap: square"/>
   </g>
   <g id="line2d_23">
    <path d="M 812.75317 309.288643 
L 812.75317 309.288643 
L 812.75317 309.288643 
L 812.75317 309.288643 
L 812.75317 309.288643 
L 812.75317 309.288643 
L 812.75317 309.288643 
L 812.75317 309.288643 
L 812.75317 309.288643 
L 812.75317 309.288643 
L 812.75317 309.288643 
L 812.75317 309.288643 
L 812.75317 309.288643 
L 812.75317 309.288643 
L 812.75317 309.288643 
L 812.75317 309.288643 
L 812.75317 309.288643 
L 812.75317 309.288643 
L 812.75317 309.288643 
L 812.75317 309.288643 
L 812.75317 309.288643 
L 812.75317 309.288643 
L 812.75317 309.288643 
L 812.75317 309.288643 
L 812.75317 309.288643 
L 812.75317 309.288643 
L 812.75317 309.288643 
L 812.75317 309.288643 
L 812.75317 309.288643 
L 812.75317 309.288643 
L 812.75317 309.288643 
L 812.75317 309.288643 
L 812.75317 309.288643 
L 812.75317 309.288643 
L 812.75317 309.288643 
" clip-path="url(#p2980cd417f)" style="fill: none; stroke: #bebebe; stroke-width: 0.8; stroke-linecap: square"/>
   </g>
   <g id="line2d_24">
    <path d="M 850.129755 282.132964 
L 850.129755 282.132964 
L 850.129755 282.132964 
L 850.129755 282.132964 
L 850.129755 282.132964 
L 850.129755 282.132964 
L 850.129755 282.132964 
L 850.129755 282.132964 
L 850.129755 282.132964 
L 850.129755 282.132964 
L 850.129755 282.132964 
L 850.129755 282.132964 
L 850.129755 282.132964 
L 850.129755 282.132964 
L 850.129755 282.132964 
L 850.129755 282.132964 
L 850.129755 282.132964 
L 850.129755 282.132964 
L 850.129755 282.132964 
L 850.129755 282.132964 
L 850.129755 282.132964 
L 850.129755 282.132964 
L 850.129755 282.132964 
L 850.129755 282.132964 
L 850.129755 282.132964 
L 850.129755 282.132964 
L 850.129755 282.132964 
L 850.129755 282.132964 
L 850.129755 282.132964 
L 850.129755 282.132964 
L 850.129755 282.132964 
L 850.129755 282.132964 
L 850.129755 282.132964 
L 850.129755 282.132964 
L 850.129755 282.132964 
" clip-path="url(#p2980cd417f)" style="fill: none; stroke: #bebebe; stroke-width: 0.8; stroke-linecap: square"/>
   </g>
   <g id="line2d_25">
    <path d="M 887.506341 254.977285 
L 887.506341 254.977285 
L 887.506341 254.977285 
L 887.506341 254.977285 
L 887.506341 254.977285 
L 887.506341 254.977285 
L 887.506341 254.977285 
L 887.506341 254.977285 
L 887.506341 254.977285 
L 887.506341 254.977285 
L 887.506341 254.977285 
L 887.506341 254.977285 
L 887.506341 254.977285 
L 887.506341 254.977285 
L 887.506341 254.977285 
L 887.506341 254.977285 
L 887.506341 254.977285 
L 887.506341 254.977285 
L 887.506341 254.977285 
L 887.506341 254.977285 
L 887.506341 254.977285 
L 887.506341 254.977285 
L 887.506341 254.977285 
L 887.506341 254.977285 
L 887.506341 254.977285 
L 887.506341 254.977285 
L 887.506341 254.977285 
L 887.506341 254.977285 
L 887.506341 254.977285 
L 887.506341 254.977285 
L 887.506341 254.977285 
L 887.506341 254.977285 
L 887.506341 254.977285 
L 887.506341 254.977285 
L 887.506341 254.977285 
" clip-path="url(#p2980cd417f)" style="fill: none; stroke: #bebebe; stroke-width: 0.8; stroke-linecap: square"/>
   </g>
   <g id="line2d_26">
    <path d="M 924.882926 227.821607 
L 924.882926 227.821607 
L 924.882926 227.821607 
L 924.882926 227.821607 
L 924.882926 227.821607 
L 924.882926 227.821607 
L 924.882926 227.821607 
L 924.882926 227.821607 
L 924.882926 227.821607 
L 924.882926 227.821607 
L 924.882926 227.821607 
L 924.882926 227.821607 
L 924.882926 227.821607 
L 924.882926 227.821607 
L 924.882926 227.821607 
L 924.882926 227.821607 
L 924.882926 227.821607 
L 924.882926 227.821607 
L 924.882926 227.821607 
L 924.882926 227.821607 
L 924.882926 227.821607 
L 924.882926 227.821607 
L 924.882926 227.821607 
L 924.882926 227.821607 
L 924.882926 227.821607 
L 924.882926 227.821607 
L 924.882926 227.821607 
L 924.882926 227.821607 
L 924.882926 227.821607 
L 924.882926 227.821607 
L 924.882926 227.821607 
L 924.882926 227.821607 
L 924.882926 227.821607 
L 924.882926 227.821607 
L 924.882926 227.821607 
" clip-path="url(#p2980cd417f)" style="fill: none; stroke: #bebebe; stroke-width: 0.8; stroke-linecap: square"/>
   </g>
   <g id="text_7">
    <!-- C -->
    <g transform="translate(703.686398 161.063783) rotate(-279) scale(0.08 -0.08)">
     <defs>
      <path id="DejaVuSans-43" d="M 4122 4306 
L 4122 3641 
Q 3803 3938 3442 4084 
Q 3081 4231 2675 4231 
Q 1875 4231 1450 3742 
Q 1025 3253 1025 2328 
Q 1025 1406 1450 917 
Q 1875 428 2675 428 
Q 3081 428 3442 575 
Q 3803 722 4122 1019 
L 4122 359 
Q 3791 134 3420 21 
Q 3050 -91 2638 -91 
Q 1578 -91 968 557 
Q 359 1206 359 2328 
Q 359 3453 968 4101 
Q 1578 4750 2638 4750 
Q 3056 4750 3426 4639 
Q 3797 4528 4122 4306 
z
" transform="scale(0.015625)"/>
     </defs>
     <use xlink:href="#DejaVuSans-43"/>
    </g>
   </g>
   <g id="text_8">
    <!-- N -->
    <g transform="translate(674.626218 175.699175) rotate(-288) scale(0.08 -0.08)">
     <defs>
      <path id="DejaVuSans-4e" d="M 628 4666 
L 1478 4666 
L 3547 763 
L 3547 4666 
L 4159 4666 
L 4159 0 
L 3309 0 
L 1241 3903 
L 1241 0 
L 628 0 
L 628 4666 
z
" transform="scale(0.015625)"/>
     </defs>
     <use xlink:href="#DejaVuSans-4e"/>
    </g>
   </g>
   <g id="text_9">
    <!-- P -->
    <g transform="translate(663.990154 223.209936) rotate(-297) scale(0.08 -0.08)">
     <defs>
      <path id="DejaVuSans-50" d="M 1259 4147 
L 1259 2394 
L 2053 2394 
Q 2494 2394 2734 2622 
Q 2975 2850 2975 3272 
Q 2975 3691 2734 3919 
Q 2494 4147 2053 4147 
L 1259 4147 
z
M 628 4666 
L 2053 4666 
Q 2838 4666 3239 4311 
Q 3641 3956 3641 3272 
Q 3641 2581 3239 2228 
Q 2838 1875 2053 1875 
L 1259 1875 
L 1259 0 
L 628 0 
L 628 4666 
z
" transform="scale(0.015625)"/>
     </defs>
     <use xlink:href="#DejaVuSans-50"/>
    </g>
   </g>
   <g id="text_10">
    <!-- O -->
    <g transform="translate(657.193527 256.135055) rotate(-306) scale(0.08 -0.08)">
     <defs>
      <path id="DejaVuSans-4f" d="M 2522 4238 
Q 1834 4238 1429 3725 
Q 1025 3213 1025 2328 
Q 1025 1447 1429 934 
Q 1834 422 2522 422 
Q 3209 422 3611 934 
Q 4013 1447 4013 2328 
Q 4013 3213 3611 3725 
Q 3209 4238 2522 4238 
z
M 2522 4750 
Q 3503 4750 4090 4092 
Q 4678 3434 4678 2328 
Q 4678 1225 4090 567 
Q 3503 -91 2522 -91 
Q 1538 -91 948 565 
Q 359 1222 359 2328 
Q 359 3434 948 4092 
Q 1538 4750 2522 4750 
z
" transform="scale(0.015625)"/>
     </defs>
     <use xlink:href="#DejaVuSans-4f"/>
    </g>
   </g>
   <g id="text_11">
    <!-- S -->
    <g transform="translate(646.342097 275.063973) rotate(-315) scale(0.08 -0.08)">
     <defs>
      <path id="DejaVuSans-53" d="M 3425 4513 
L 3425 3897 
Q 3066 4069 2747 4153 
Q 2428 4238 2131 4238 
Q 1616 4238 1336 4038 
Q 1056 3838 1056 3469 
Q 1056 3159 1242 3001 
Q 1428 2844 1947 2747 
L 2328 2669 
Q 3034 2534 3370 2195 
Q 3706 1856 3706 1288 
Q 3706 609 3251 259 
Q 2797 -91 1919 -91 
Q 1588 -91 1214 -16 
Q 841 59 441 206 
L 441 856 
Q 825 641 1194 531 
Q 1563 422 1919 422 
Q 2459 422 2753 634 
Q 3047 847 3047 1241 
Q 3047 1584 2836 1778 
Q 2625 1972 2144 2069 
L 1759 2144 
Q 1053 2284 737 2584 
Q 422 2884 422 3419 
Q 422 4038 858 4394 
Q 1294 4750 2059 4750 
Q 2388 4750 2728 4690 
Q 3069 4631 3425 4513 
z
" transform="scale(0.015625)"/>
     </defs>
     <use xlink:href="#DejaVuSans-53"/>
    </g>
   </g>
   <g id="text_12">
    <!-- others -->
    <g transform="translate(621.03258 281.346815) rotate(-324) scale(0.08 -0.08)">
     <defs>
      <path id="DejaVuSans-6f" d="M 1959 3097 
Q 1497 3097 1228 2736 
Q 959 2375 959 1747 
Q 959 1119 1226 758 
Q 1494 397 1959 397 
Q 2419 397 2687 759 
Q 2956 1122 2956 1747 
Q 2956 2369 2687 2733 
Q 2419 3097 1959 3097 
z
M 1959 3584 
Q 2709 3584 3137 3096 
Q 3566 2609 3566 1747 
Q 3566 888 3137 398 
Q 2709 -91 1959 -91 
Q 1206 -91 779 398 
Q 353 888 353 1747 
Q 353 2609 779 3096 
Q 1206 3584 1959 3584 
z
" transform="scale(0.015625)"/>
      <path id="DejaVuSans-74" d="M 1172 4494 
L 1172 3500 
L 2356 3500 
L 2356 3053 
L 1172 3053 
L 1172 1153 
Q 1172 725 1289 603 
Q 1406 481 1766 481 
L 2356 481 
L 2356 0 
L 1766 0 
Q 1100 0 847 248 
Q 594 497 594 1153 
L 594 3053 
L 172 3053 
L 172 3500 
L 594 3500 
L 594 4494 
L 1172 4494 
z
" transform="scale(0.015625)"/>
      <path id="DejaVuSans-68" d="M 3513 2113 
L 3513 0 
L 2938 0 
L 2938 2094 
Q 2938 2591 2744 2837 
Q 2550 3084 2163 3084 
Q 1697 3084 1428 2787 
Q 1159 2491 1159 1978 
L 1159 0 
L 581 0 
L 581 4863 
L 1159 4863 
L 1159 2956 
Q 1366 3272 1645 3428 
Q 1925 3584 2291 3584 
Q 2894 3584 3203 3211 
Q 3513 2838 3513 2113 
z
" transform="scale(0.015625)"/>
      <path id="DejaVuSans-65" d="M 3597 1894 
L 3597 1613 
L 953 1613 
Q 991 1019 1311 708 
Q 1631 397 2203 397 
Q 2534 397 2845 478 
Q 3156 559 3463 722 
L 3463 178 
Q 3153 47 2828 -22 
Q 2503 -91 2169 -91 
Q 1331 -91 842 396 
Q 353 884 353 1716 
Q 353 2575 817 3079 
Q 1281 3584 2069 3584 
Q 2775 3584 3186 3129 
Q 3597 2675 3597 1894 
z
M 3022 2063 
Q 3016 2534 2758 2815 
Q 2500 3097 2075 3097 
Q 1594 3097 1305 2825 
Q 1016 2553 972 2059 
L 3022 2063 
z
" transform="scale(0.015625)"/>
      <path id="DejaVuSans-72" d="M 2631 2963 
Q 2534 3019 2420 3045 
Q 2306 3072 2169 3072 
Q 1681 3072 1420 2755 
Q 1159 2438 1159 1844 
L 1159 0 
L 581 0 
L 581 3500 
L 1159 3500 
L 1159 2956 
Q 1341 3275 1631 3429 
Q 1922 3584 2338 3584 
Q 2397 3584 2469 3576 
Q 2541 3569 2628 3553 
L 2631 2963 
z
" transform="scale(0.015625)"/>
      <path id="DejaVuSans-73" d="M 2834 3397 
L 2834 2853 
Q 2591 2978 2328 3040 
Q 2066 3103 1784 3103 
Q 1356 3103 1142 2972 
Q 928 2841 928 2578 
Q 928 2378 1081 2264 
Q 1234 2150 1697 2047 
L 1894 2003 
Q 2506 1872 2764 1633 
Q 3022 1394 3022 966 
Q 3022 478 2636 193 
Q 2250 -91 1575 -91 
Q 1294 -91 989 -36 
Q 684 19 347 128 
L 347 722 
Q 666 556 975 473 
Q 1284 391 1588 391 
Q 1994 391 2212 530 
Q 2431 669 2431 922 
Q 2431 1156 2273 1281 
Q 2116 1406 1581 1522 
L 1381 1569 
Q 847 1681 609 1914 
Q 372 2147 372 2553 
Q 372 3047 722 3315 
Q 1072 3584 1716 3584 
Q 2034 3584 2315 3537 
Q 2597 3491 2834 3397 
z
" transform="scale(0.015625)"/>
     </defs>
     <use xlink:href="#DejaVuSans-6f"/>
     <use xlink:href="#DejaVuSans-74" x="61.181641"/>
     <use xlink:href="#DejaVuSans-68" x="100.390625"/>
     <use xlink:href="#DejaVuSans-65" x="163.769531"/>
     <use xlink:href="#DejaVuSans-72" x="225.292969"/>
     <use xlink:href="#DejaVuSans-73" x="266.40625"/>
    </g>
   </g>
   <g id="text_13">
    <!-- N-N -->
    <g transform="translate(485.725801 283.952247) rotate(-342) scale(0.08 -0.08)">
     <defs>
      <path id="DejaVuSans-2d" d="M 313 2009 
L 1997 2009 
L 1997 1497 
L 313 1497 
L 313 2009 
z
" transform="scale(0.015625)"/>
     </defs>
     <use xlink:href="#DejaVuSans-4e"/>
     <use xlink:href="#DejaVuSans-2d" x="74.804688"/>
     <use xlink:href="#DejaVuSans-4e" x="110.888672"/>
    </g>
   </g>
   <g id="text_14">
    <!-- others -->
    <g transform="translate(520.892084 331.448501) rotate(-351) scale(0.08 -0.08)">
     <use xlink:href="#DejaVuSans-6f"/>
     <use xlink:href="#DejaVuSans-74" x="61.181641"/>
     <use xlink:href="#DejaVuSans-68" x="100.390625"/>
     <use xlink:href="#DejaVuSans-65" x="163.769531"/>
     <use xlink:href="#DejaVuSans-72" x="225.292969"/>
     <use xlink:href="#DejaVuSans-73" x="266.40625"/>
    </g>
   </g>
   <g id="text_15">
    <!-- N-O -->
    <g transform="translate(555.55205 365.8075) scale(0.08 -0.08)">
     <use xlink:href="#DejaVuSans-4e"/>
     <use xlink:href="#DejaVuSans-2d" x="74.804688"/>
     <use xlink:href="#DejaVuSans-4f" x="113.638672"/>
    </g>
   </g>
   <g id="text_16">
    <!-- C-N -->
    <g transform="translate(581.112397 390.683572) rotate(-9) scale(0.08 -0.08)">
     <use xlink:href="#DejaVuSans-43"/>
     <use xlink:href="#DejaVuSans-2d" x="69.824219"/>
     <use xlink:href="#DejaVuSans-4e" x="105.908203"/>
    </g>
   </g>
   <g id="text_17">
    <!-- P-P -->
    <g transform="translate(600.090481 410.730622) rotate(-18) scale(0.08 -0.08)">
     <use xlink:href="#DejaVuSans-50"/>
     <use xlink:href="#DejaVuSans-2d" x="58.052734"/>
     <use xlink:href="#DejaVuSans-50" x="94.136719"/>
    </g>
   </g>
   <g id="text_18">
    <!-- C-C -->
    <g transform="translate(608.383024 432.120683) rotate(-27) scale(0.08 -0.08)">
     <use xlink:href="#DejaVuSans-43"/>
     <use xlink:href="#DejaVuSans-2d" x="69.824219"/>
     <use xlink:href="#DejaVuSans-43" x="105.908203"/>
    </g>
   </g>
   <g id="text_19">
    <!-- O-O -->
    <g transform="translate(619.96846 452.083554) rotate(-36) scale(0.08 -0.08)">
     <use xlink:href="#DejaVuSans-4f"/>
     <use xlink:href="#DejaVuSans-2d" x="81.460938"/>
     <use xlink:href="#DejaVuSans-4f" x="120.294922"/>
    </g>
   </g>
   <g id="text_20">
    <!-- S-S -->
    <g transform="translate(642.786481 461.935396) rotate(-45) scale(0.08 -0.08)">
     <use xlink:href="#DejaVuSans-53"/>
     <use xlink:href="#DejaVuSans-2d" x="63.476562"/>
     <use xlink:href="#DejaVuSans-53" x="99.560547"/>
    </g>
   </g>
   <g id="text_21">
    <!-- others -->
    <g transform="translate(650.441714 540.305249) rotate(-63) scale(0.08 -0.08)">
     <use xlink:href="#DejaVuSans-6f"/>
     <use xlink:href="#DejaVuSans-74" x="61.181641"/>
     <use xlink:href="#DejaVuSans-68" x="100.390625"/>
     <use xlink:href="#DejaVuSans-65" x="163.769531"/>
     <use xlink:href="#DejaVuSans-72" x="225.292969"/>
     <use xlink:href="#DejaVuSans-73" x="266.40625"/>
    </g>
   </g>
   <g id="text_22">
    <!-- N-N-N -->
    <g transform="translate(681.223074 545.485032) rotate(-72) scale(0.08 -0.08)">
     <use xlink:href="#DejaVuSans-4e"/>
     <use xlink:href="#DejaVuSans-2d" x="74.804688"/>
     <use xlink:href="#DejaVuSans-4e" x="110.888672"/>
     <use xlink:href="#DejaVuSans-2d" x="185.693359"/>
     <use xlink:href="#DejaVuSans-4e" x="221.777344"/>
    </g>
   </g>
   <g id="text_23">
    <!-- N-N-O -->
    <g transform="translate(715.920478 517.115958) rotate(-81) scale(0.08 -0.08)">
     <use xlink:href="#DejaVuSans-4e"/>
     <use xlink:href="#DejaVuSans-2d" x="74.804688"/>
     <use xlink:href="#DejaVuSans-4e" x="110.888672"/>
     <use xlink:href="#DejaVuSans-2d" x="185.693359"/>
     <use xlink:href="#DejaVuSans-4f" x="224.527344"/>
    </g>
   </g>
   <g id="text_24">
    <!-- N-O-O -->
    <g transform="translate(740.2075 513.22314) rotate(-90) scale(0.08 -0.08)">
     <use xlink:href="#DejaVuSans-4e"/>
     <use xlink:href="#DejaVuSans-2d" x="74.804688"/>
     <use xlink:href="#DejaVuSans-4f" x="113.638672"/>
     <use xlink:href="#DejaVuSans-2d" x="195.099609"/>
     <use xlink:href="#DejaVuSans-4f" x="233.933594"/>
    </g>
   </g>
   <g id="text_25">
    <!-- C-N-N -->
    <g transform="translate(753.95435 478.443139) rotate(-279) scale(0.08 -0.08)">
     <use xlink:href="#DejaVuSans-43"/>
     <use xlink:href="#DejaVuSans-2d" x="69.824219"/>
     <use xlink:href="#DejaVuSans-4e" x="105.908203"/>
     <use xlink:href="#DejaVuSans-2d" x="180.712891"/>
     <use xlink:href="#DejaVuSans-4e" x="216.796875"/>
    </g>
   </g>
   <g id="text_26">
    <!-- C-C-C -->
    <g transform="translate(770.866755 471.897091) rotate(-288) scale(0.08 -0.08)">
     <use xlink:href="#DejaVuSans-43"/>
     <use xlink:href="#DejaVuSans-2d" x="69.824219"/>
     <use xlink:href="#DejaVuSans-43" x="105.908203"/>
     <use xlink:href="#DejaVuSans-2d" x="175.732422"/>
     <use xlink:href="#DejaVuSans-43" x="211.816406"/>
    </g>
   </g>
   <g id="text_27">
    <!-- N-N-S -->
    <g transform="translate(786.514195 463.676906) rotate(-297) scale(0.08 -0.08)">
     <use xlink:href="#DejaVuSans-4e"/>
     <use xlink:href="#DejaVuSans-2d" x="74.804688"/>
     <use xlink:href="#DejaVuSans-4e" x="110.888672"/>
     <use xlink:href="#DejaVuSans-2d" x="185.693359"/>
     <use xlink:href="#DejaVuSans-53" x="221.777344"/>
    </g>
   </g>
   <g id="text_28">
    <!-- N-O-S -->
    <g transform="translate(800.84461 453.853809) rotate(-306) scale(0.08 -0.08)">
     <use xlink:href="#DejaVuSans-4e"/>
     <use xlink:href="#DejaVuSans-2d" x="74.804688"/>
     <use xlink:href="#DejaVuSans-4f" x="113.638672"/>
     <use xlink:href="#DejaVuSans-2d" x="195.099609"/>
     <use xlink:href="#DejaVuSans-53" x="231.183594"/>
    </g>
   </g>
   <g id="text_29">
    <!-- N-N-N-N -->
    <g transform="translate(873.575519 464.83) rotate(-324) scale(0.08 -0.08)">
     <use xlink:href="#DejaVuSans-4e"/>
     <use xlink:href="#DejaVuSans-2d" x="74.804688"/>
     <use xlink:href="#DejaVuSans-4e" x="110.888672"/>
     <use xlink:href="#DejaVuSans-2d" x="185.693359"/>
     <use xlink:href="#DejaVuSans-4e" x="221.777344"/>
     <use xlink:href="#DejaVuSans-2d" x="296.582031"/>
     <use xlink:href="#DejaVuSans-4e" x="332.666016"/>
    </g>
   </g>
   <g id="text_30">
    <!-- others -->
    <g transform="translate(855.913828 426.157631) rotate(-333) scale(0.08 -0.08)">
     <use xlink:href="#DejaVuSans-6f"/>
     <use xlink:href="#DejaVuSans-74" x="61.181641"/>
     <use xlink:href="#DejaVuSans-68" x="100.390625"/>
     <use xlink:href="#DejaVuSans-65" x="163.769531"/>
     <use xlink:href="#DejaVuSans-72" x="225.292969"/>
     <use xlink:href="#DejaVuSans-73" x="266.40625"/>
    </g>
   </g>
   <g id="text_31">
    <!-- N-N-O-O -->
    <g transform="translate(862.543456 406.387725) rotate(-342) scale(0.08 -0.08)">
     <use xlink:href="#DejaVuSans-4e"/>
     <use xlink:href="#DejaVuSans-2d" x="74.804688"/>
     <use xlink:href="#DejaVuSans-4e" x="110.888672"/>
     <use xlink:href="#DejaVuSans-2d" x="185.693359"/>
     <use xlink:href="#DejaVuSans-4f" x="224.527344"/>
     <use xlink:href="#DejaVuSans-2d" x="305.988281"/>
     <use xlink:href="#DejaVuSans-4f" x="344.822266"/>
    </g>
   </g>
   <g id="text_32">
    <!-- C-C-C-C -->
    <g transform="translate(851.075585 383.74443) rotate(-351) scale(0.08 -0.08)">
     <use xlink:href="#DejaVuSans-43"/>
     <use xlink:href="#DejaVuSans-2d" x="69.824219"/>
     <use xlink:href="#DejaVuSans-43" x="105.908203"/>
     <use xlink:href="#DejaVuSans-2d" x="175.732422"/>
     <use xlink:href="#DejaVuSans-43" x="211.816406"/>
     <use xlink:href="#DejaVuSans-2d" x="281.640625"/>
     <use xlink:href="#DejaVuSans-43" x="317.724609"/>
    </g>
   </g>
   <g id="text_33">
    <!-- N-N-N-O -->
    <g transform="translate(847.71576 365.8075) scale(0.08 -0.08)">
     <use xlink:href="#DejaVuSans-4e"/>
     <use xlink:href="#DejaVuSans-2d" x="74.804688"/>
     <use xlink:href="#DejaVuSans-4e" x="110.888672"/>
     <use xlink:href="#DejaVuSans-2d" x="185.693359"/>
     <use xlink:href="#DejaVuSans-4e" x="221.777344"/>
     <use xlink:href="#DejaVuSans-2d" x="296.582031"/>
     <use xlink:href="#DejaVuSans-4f" x="335.416016"/>
    </g>
   </g>
   <g id="text_34">
    <!-- N-N-S-S -->
    <g transform="translate(846.381761 348.669032) rotate(-9) scale(0.08 -0.08)">
     <use xlink:href="#DejaVuSans-4e"/>
     <use xlink:href="#DejaVuSans-2d" x="74.804688"/>
     <use xlink:href="#DejaVuSans-4e" x="110.888672"/>
     <use xlink:href="#DejaVuSans-2d" x="185.693359"/>
     <use xlink:href="#DejaVuSans-53" x="221.777344"/>
     <use xlink:href="#DejaVuSans-2d" x="285.253906"/>
     <use xlink:href="#DejaVuSans-53" x="321.337891"/>
    </g>
   </g>
   <g id="text_35">
    <!-- O-O-O-O -->
    <g transform="translate(839.126277 333.063184) rotate(-18) scale(0.08 -0.08)">
     <use xlink:href="#DejaVuSans-4f"/>
     <use xlink:href="#DejaVuSans-2d" x="81.460938"/>
     <use xlink:href="#DejaVuSans-4f" x="120.294922"/>
     <use xlink:href="#DejaVuSans-2d" x="201.755859"/>
     <use xlink:href="#DejaVuSans-4f" x="240.589844"/>
     <use xlink:href="#DejaVuSans-2d" x="322.050781"/>
     <use xlink:href="#DejaVuSans-4f" x="360.884766"/>
    </g>
   </g>
   <g id="text_36">
    <!-- C-C-N-N -->
    <g transform="translate(832.906645 317.720184) rotate(-27) scale(0.08 -0.08)">
     <use xlink:href="#DejaVuSans-43"/>
     <use xlink:href="#DejaVuSans-2d" x="69.824219"/>
     <use xlink:href="#DejaVuSans-43" x="105.908203"/>
     <use xlink:href="#DejaVuSans-2d" x="175.732422"/>
     <use xlink:href="#DejaVuSans-4e" x="211.816406"/>
     <use xlink:href="#DejaVuSans-2d" x="286.621094"/>
     <use xlink:href="#DejaVuSans-4e" x="322.705078"/>
    </g>
   </g>
   <g id="text_37">
    <!-- others -->
    <g transform="translate(818.304689 286.417188) rotate(-45) scale(0.08 -0.08)">
     <use xlink:href="#DejaVuSans-6f"/>
     <use xlink:href="#DejaVuSans-74" x="61.181641"/>
     <use xlink:href="#DejaVuSans-68" x="100.390625"/>
     <use xlink:href="#DejaVuSans-65" x="163.769531"/>
     <use xlink:href="#DejaVuSans-72" x="225.292969"/>
     <use xlink:href="#DejaVuSans-73" x="266.40625"/>
    </g>
   </g>
   <g id="text_38">
    <!-- N-N-N-N-N -->
    <g transform="translate(804.764013 275.462843) rotate(-54) scale(0.08 -0.08)">
     <use xlink:href="#DejaVuSans-4e"/>
     <use xlink:href="#DejaVuSans-2d" x="74.804688"/>
     <use xlink:href="#DejaVuSans-4e" x="110.888672"/>
     <use xlink:href="#DejaVuSans-2d" x="185.693359"/>
     <use xlink:href="#DejaVuSans-4e" x="221.777344"/>
     <use xlink:href="#DejaVuSans-2d" x="296.582031"/>
     <use xlink:href="#DejaVuSans-4e" x="332.666016"/>
     <use xlink:href="#DejaVuSans-2d" x="407.470703"/>
     <use xlink:href="#DejaVuSans-4e" x="443.554688"/>
    </g>
   </g>
   <g id="text_39">
    <!-- N-N-N-O-O -->
    <g transform="translate(788.543517 269.265199) rotate(-63) scale(0.08 -0.08)">
     <use xlink:href="#DejaVuSans-4e"/>
     <use xlink:href="#DejaVuSans-2d" x="74.804688"/>
     <use xlink:href="#DejaVuSans-4e" x="110.888672"/>
     <use xlink:href="#DejaVuSans-2d" x="185.693359"/>
     <use xlink:href="#DejaVuSans-4e" x="221.777344"/>
     <use xlink:href="#DejaVuSans-2d" x="296.582031"/>
     <use xlink:href="#DejaVuSans-4f" x="335.416016"/>
     <use xlink:href="#DejaVuSans-2d" x="416.876953"/>
     <use xlink:href="#DejaVuSans-4f" x="455.710938"/>
    </g>
   </g>
   <g id="text_40">
    <!-- C-C-C-C-C -->
    <g transform="translate(773.095501 262.730775) rotate(-72) scale(0.08 -0.08)">
     <use xlink:href="#DejaVuSans-43"/>
     <use xlink:href="#DejaVuSans-2d" x="69.824219"/>
     <use xlink:href="#DejaVuSans-43" x="105.908203"/>
     <use xlink:href="#DejaVuSans-2d" x="175.732422"/>
     <use xlink:href="#DejaVuSans-43" x="211.816406"/>
     <use xlink:href="#DejaVuSans-2d" x="281.640625"/>
     <use xlink:href="#DejaVuSans-43" x="317.724609"/>
     <use xlink:href="#DejaVuSans-2d" x="387.548828"/>
     <use xlink:href="#DejaVuSans-43" x="423.632812"/>
    </g>
   </g>
   <g id="text_41">
    <!-- N-N-N-N-O -->
    <g transform="translate(756.571776 260.453764) rotate(-81) scale(0.08 -0.08)">
     <use xlink:href="#DejaVuSans-4e"/>
     <use xlink:href="#DejaVuSans-2d" x="74.804688"/>
     <use xlink:href="#DejaVuSans-4e" x="110.888672"/>
     <use xlink:href="#DejaVuSans-2d" x="185.693359"/>
     <use xlink:href="#DejaVuSans-4e" x="221.777344"/>
     <use xlink:href="#DejaVuSans-2d" x="296.582031"/>
     <use xlink:href="#DejaVuSans-4e" x="332.666016"/>
     <use xlink:href="#DejaVuSans-2d" x="407.470703"/>
     <use xlink:href="#DejaVuSans-4f" x="446.304688"/>
    </g>
   </g>
  </g>
 </g>
 <defs>
  <clipPath id="p2980cd417f">
   <path d="M 1015.2 363.6 
C 1015.2 327.19843 1008.029684 291.150818 994.099406 257.520153 
C 980.169128 223.889487 959.749797 193.329798 934.01 167.59 
C 908.270202 141.850203 877.710513 121.430872 844.079847 107.500594 
C 810.449182 93.570316 774.40157 86.4 738 86.4 
C 701.59843 86.4 665.550818 93.570316 631.920153 107.500594 
C 598.289487 121.430872 567.729798 141.850203 541.99 167.59 
C 516.250203 193.329798 495.830872 223.889487 481.900594 257.520153 
C 467.970316 291.150818 460.8 327.19843 460.8 363.6 
C 460.8 400.00157 467.970316 436.049182 481.900594 469.679847 
C 495.830872 503.310513 516.250203 533.870202 541.99 559.61 
C 567.729798 585.349797 598.289487 605.769128 631.920153 619.699406 
C 665.550818 633.629684 701.59843 640.8 738 640.8 
C 774.40157 640.8 810.449182 633.629684 844.079847 619.699406 
C 877.710513 605.769128 908.270202 585.349797 934.01 559.61 
C 959.749797 533.870202 980.169128 503.310513 994.099406 469.679847 
C 1008.029684 436.049182 1015.2 400.00157 1015.2 363.6 
M 738 363.6 
C 738 363.6 738 363.6 738 363.6 
C 738 363.6 738 363.6 738 363.6 
C 738 363.6 738 363.6 738 363.6 
C 738 363.6 738 363.6 738 363.6 
C 738 363.6 738 363.6 738 363.6 
C 738 363.6 738 363.6 738 363.6 
C 738 363.6 738 363.6 738 363.6 
C 738 363.6 738 363.6 738 363.6 
C 738 363.6 738 363.6 738 363.6 
C 738 363.6 738 363.6 738 363.6 
C 738 363.6 738 363.6 738 363.6 
C 738 363.6 738 363.6 738 363.6 
C 738 363.6 738 363.6 738 363.6 
C 738 363.6 738 363.6 738 363.6 
C 738 363.6 738 363.6 738 363.6 
C 738 363.6 738 363.6 738 363.6 
M 1015.2 363.6 
z
"/>
  </clipPath>
 </defs>
</svg>
